<?xml version="1.0" encoding="UTF-8"?>
<svg width="60px" height="75px" viewBox="0 0 60 75" version="1.1" xmlns="http://www.w3.org/2000/svg" xmlns:xlink="http://www.w3.org/1999/xlink">
    <!-- Generator: Sketch 54.1 (76490) - https://sketchapp.com -->
    <title>LVIV_LOGO</title>
    <desc>Created with Sketch.</desc>
    <g id="Tablet-(768)" stroke="none" stroke-width="1" fill="none" fill-rule="evenodd">
        <g id="01_2_LT_Mega_Menu_768" transform="translate(-354.000000, -53.000000)">
            <g id="LVIV_LOGO" transform="translate(354.000000, 53.000000)">
                <polygon id="Path" fill="#FFFFFF" points="17.2734177 74.2236181 16.3 74.2236181 16.3 70.5113065 17.0835443 70.5113065 17.0835443 73.1494975 18.2670886 70.5113065 19.2405063 70.5113065 19.2405063 74.2236181 18.456962 74.2236181 18.456962 71.5854271"></polygon>
                <path d="M42.3481013,72.2927136 L42.3481013,71.0741206 L41.9860759,71.0741206 C41.5067511,71.0741206 41.2670886,71.2835008 41.2670886,71.7022613 C41.2559721,71.8646879 41.3175666,72.0237183 41.435443,72.1369347 C41.5582659,72.2415618 41.7168113,72.2955105 41.878481,72.2876884 L42.3481013,72.2927136 Z M43.143038,70.5113065 L43.143038,74.2236181 L42.3481013,74.2236181 L42.3481013,72.8555276 L41.8291139,72.8555276 L41.1810127,74.2236181 L40.2949367,74.2236181 L41.1050633,72.7160804 C40.6750623,72.5616488 40.3995728,72.1438493 40.4291139,71.6909548 C40.4072566,71.3545115 40.5483051,71.0278793 40.8088608,70.8115578 C41.0620253,70.6122278 41.4379747,70.5121441 41.9367089,70.5113065 L43.143038,70.5113065 Z" id="Shape" fill="#FFFFFF"></path>
                <path d="M39.7594937,70.5113065 L39.7594937,74.2236181 L38.964557,74.2236181 L38.964557,71.1231156 L38.0949367,71.1231156 L37.943038,72.4585427 C37.9100444,72.7984002 37.8469309,73.13471 37.7544304,73.4635678 C37.6223317,73.9642682 37.1645314,74.3120164 36.643038,74.3077889 L36.635443,73.6180905 C36.8675775,73.589378 37.0496736,73.4065772 37.0759494,73.1758794 C37.1101266,73.0226131 37.1468354,72.7751256 37.1860759,72.4359296 L37.4189873,70.5100503 L39.7594937,70.5113065 Z" id="Path" fill="#FFFFFF"></path>
                <polygon id="Path" fill="#FFFFFF" points="22.5822785 71.1281407 21.5772152 71.1281407 21.5772152 74.2236181 20.7835443 74.2236181 20.7835443 71.1281407 19.7886076 71.1281407 19.7886076 70.5113065 22.5822785 70.5113065 22.5822785 71.1281407"></polygon>
                <path d="M14.1898734,72.3781407 C14.379781,72.3911258 14.5680522,72.3358283 14.7202532,72.2223618 C14.8468354,72.1193467 14.9037975,71.9472362 14.9037975,71.7072864 C14.9037975,71.288526 14.6624473,71.0791457 14.1797468,71.0791457 L13.8278481,71.0791457 L13.8278481,72.3768844 L14.1898734,72.3781407 Z M14.1898734,70.5113065 C14.6776371,70.5113065 15.057384,70.6113903 15.3291139,70.8115578 C15.6008439,71.0117253 15.7350211,71.3103015 15.7316456,71.7072864 C15.7316456,72.1218593 15.6050633,72.4346734 15.3316456,72.6432161 C15.0217891,72.8662298 14.6442643,72.9770817 14.2620253,72.9572864 L13.8341772,72.9572864 L13.8341772,74.2236181 L13.0392405,74.2236181 L13.0392405,70.5113065 L14.1898734,70.5113065 Z" id="Shape" fill="#FFFFFF"></path>
                <polygon id="Path" fill="#FFFFFF" points="11.4949367 72.2060302 12.5481013 74.2236181 11.6670886 74.2236181 10.8240506 72.5816583 10.4025316 72.5816583 10.4025316 74.2236181 9.60759494 74.2236181 9.60759494 70.5113065 10.4025316 70.5113065 10.4025316 71.991206 10.8405063 71.991206 11.656962 70.5113065 12.4455696 70.5113065"></polygon>
                <path d="M7.77594937,71.1017588 L7.11772152,71.1017588 L7.06329114,71.6042714 C7.03313762,71.952325 6.98539822,72.298657 6.92025316,72.6419598 C6.85063291,72.9497487 6.80126582,73.2525126 6.50632911,73.6105528 L7.7721519,73.6105528 L7.7721519,71.0979899 L7.77594937,71.1017588 Z M8.87974684,73.6143216 L8.87974684,74.888191 L8.22278481,74.888191 L8.22278481,74.2236181 L6.19746835,74.2236181 L6.19746835,74.888191 L5.5443038,74.888191 L5.5443038,73.611809 L5.74303797,73.611809 C5.96568178,73.3615299 6.10649383,73.050048 6.14683544,72.718593 C6.18860759,72.4811558 6.23924051,72.1256281 6.30126582,71.6532663 L6.44177215,70.5113065 L8.55443038,70.5113065 L8.55443038,73.611809 L8.87974684,73.6143216 Z" id="Shape" fill="#FFFFFF"></path>
                <rect id="Rectangle" fill="#FFFFFF" x="4.17974684" y="70.5113065" width="1" height="3.71231156"></rect>
                <path d="M1.92531646,73.6394472 C2.12068784,73.6502552 2.31566936,73.612244 2.49240506,73.5288945 C2.63177219,73.4383524 2.70732483,73.2771873 2.68734177,73.1130653 C2.68734177,72.741206 2.45654008,72.5552764 1.99493671,72.5552764 L1.54683544,72.5552764 L1.54683544,73.6394472 L1.92531646,73.6394472 Z M1.54556962,71.080402 L1.54556962,72.0188442 L1.93417722,72.0188442 C2.0938551,72.0275492 2.25192231,71.9833588 2.3835443,71.8932161 C2.49220135,71.8044109 2.55187305,71.6696461 2.5443038,71.5301508 C2.55630539,71.3917643 2.49063945,71.2580431 2.37341772,71.1821608 C2.21074085,71.10324 2.03001806,71.0681477 1.84936709,71.080402 L1.54556962,71.080402 Z M2.67088608,72.2600503 C2.89626622,72.2944883 3.10824634,72.3881844 3.28481013,72.531407 C3.45135564,72.6912204 3.53724212,72.916528 3.51898734,73.1457286 C3.51898734,73.5351759 3.37848101,73.8123953 3.09746835,73.9773869 C2.8164557,74.1423786 2.4257384,74.2261307 1.92531646,74.2286432 L0.751898734,74.2286432 L0.751898734,70.5113065 L1.77341772,70.5113065 C2.27974684,70.5113065 2.67594937,70.5866834 2.94683544,70.7361809 C3.21276909,70.8787007 3.37090964,71.1616985 3.35189873,71.4610553 C3.36066562,71.6561982 3.28942797,71.8465462 3.15443038,71.9886935 C3.02278081,72.1232653 2.85493859,72.2174555 2.67088608,72.2600503 L2.67088608,72.2600503 Z" id="Shape" fill="#FFFFFF"></path>
                <path d="M35.0329114,71.1017588 L34.3734177,71.1017588 L34.3189873,71.6042714 C34.2888338,71.952325 34.2410944,72.298657 34.1759494,72.6419598 C34.1063291,72.9497487 34.056962,73.2525126 33.7620253,73.6105528 L35.0278481,73.6105528 L35.0278481,71.0979899 L35.0329114,71.1017588 Z M36.135443,73.6143216 L36.135443,74.888191 L35.478481,74.888191 L35.478481,74.2236181 L33.4531646,74.2236181 L33.4531646,74.888191 L32.7974684,74.888191 L32.7974684,73.611809 L32.9974684,73.611809 C33.2193157,73.3611577 33.3596305,73.0497998 33.4,72.718593 C33.4417722,72.4811558 33.4924051,72.1256281 33.5544304,71.6532663 L33.6949367,70.5113065 L35.8088608,70.5113065 L35.8088608,73.611809 L36.135443,73.6143216 Z" id="Shape" fill="#FFFFFF"></path>
                <path d="M58.9164557,73.1394472 C58.7544304,73.5590452 58.5253165,73.9773869 58.0911392,74.1620603 C57.8510079,74.2504527 57.5978061,74.2988436 57.3417722,74.3052764 L57.3417722,73.6005025 C57.5759494,73.6005025 57.8835443,73.5603015 58.0443038,73.3756281 L56.7379747,70.5113065 L57.5594937,70.5113065 L58.4316456,72.6055276 L59.1265823,70.5113065 L59.9329114,70.5113065 L58.9164557,73.1394472 Z" id="Path" fill="#FFFFFF"></path>
                <rect id="Rectangle" fill="#FFFFFF" x="52.4708861" y="70.5113065" width="1" height="3.71231156"></rect>
                <path d="M50.2253165,73.6394472 C50.4206878,73.6502552 50.6156694,73.612244 50.7924051,73.5288945 C50.9317722,73.4383524 51.0073248,73.2771873 50.9873418,73.1130653 C50.9873418,72.741206 50.7565401,72.5552764 50.2949367,72.5552764 L49.8468354,72.5552764 L49.8468354,73.6394472 L50.2253165,73.6394472 Z M49.8455696,71.080402 L49.8455696,72.0188442 L50.2341772,72.0188442 C50.3938551,72.0275492 50.5519223,71.9833588 50.6835443,71.8932161 C50.7922794,71.8025745 50.850647,71.6656972 50.8405063,71.5251256 C50.8530465,71.3872453 50.7884097,71.2536406 50.6721519,71.1771357 C50.509475,71.0982148 50.3287522,71.0631226 50.1481013,71.0753769 L49.8455696,71.080402 Z M50.964557,72.2600503 C51.1899371,72.2944883 51.4019172,72.3881844 51.578481,72.531407 C51.7450265,72.6912204 51.830913,72.916528 51.8126582,73.1457286 C51.8126582,73.5351759 51.6721519,73.8123953 51.3911392,73.9773869 C51.1101266,74.1423786 50.7194093,74.2261307 50.2189873,74.2286432 L49.0506329,74.2286432 L49.0506329,70.5113065 L50.0721519,70.5113065 C50.5843882,70.5113065 50.9755274,70.5862647 51.2455696,70.7361809 C51.5115033,70.8787007 51.6696438,71.1616985 51.6506329,71.4610553 C51.6593998,71.6561982 51.5881621,71.8465462 51.4531646,71.9886935 C51.3204799,72.123891 51.1512359,72.2181277 50.9658228,72.2600503 L50.964557,72.2600503 Z" id="Shape" fill="#FFFFFF"></path>
                <path d="M46.4379747,72.3668342 C46.456962,72.9296482 46.6746835,73.2701005 47.0101266,73.4409548 C47.3455696,73.611809 47.7974684,73.5866834 48.2759494,73.3542714 L48.2759494,74.0301508 C47.677794,74.3168475 46.9740179,74.2832717 46.4063291,73.9409548 C45.8924051,73.620603 45.6253165,73.0527638 45.6253165,72.3668342 C45.6253165,71.6809045 45.8924051,71.1105528 46.4063291,70.7939698 C46.9740179,70.4516529 47.677794,70.4180771 48.2759494,70.7047739 L48.2759494,71.4095477 C47.7924051,71.178392 47.3405063,71.1507538 47.0101266,71.3228643 C46.6797468,71.4949749 46.456962,71.8103015 46.4379747,72.3668342 Z" id="Path" fill="#FFFFFF"></path>
                <polygon id="Path" fill="#FFFFFF" points="56.4987342 71.1281407 55.4936709 71.1281407 55.4936709 74.2236181 54.6987342 74.2236181 54.6987342 71.1281407 53.7037975 71.1281407 53.7037975 70.5113065 56.4987342 70.5113065 56.4987342 71.1281407"></polygon>
                <polygon id="Path" fill="#FFFFFF" points="24.1582278 74.2236181 23.1848101 74.2236181 23.1848101 70.5113065 23.9683544 70.5113065 23.9683544 73.1494975 25.1518987 70.5113065 26.1240506 70.5113065 26.1240506 74.2236181 25.3405063 74.2236181 25.3405063 71.5854271"></polygon>
                <path d="M27.9873418,74.2236181 L27.0151899,74.2236181 L27.0151899,70.5113065 L27.7987342,70.5113065 L27.7987342,73.1494975 L28.9810127,70.5113065 L29.9544304,70.5113065 L29.9544304,74.2236181 L29.1708861,74.2236181 L29.1708861,71.5854271 L27.9873418,74.2236181 L27.9873418,74.2236181 Z M28.4822785,70.3291457 C28.0012658,70.3291457 27.6291139,70.0138191 27.5797468,69.4635678 L28.0506329,69.4635678 C28.0721519,69.6620603 28.235443,69.7826633 28.4822785,69.7826633 C28.7291139,69.7826633 28.8898734,69.6570352 28.9164557,69.4635678 L29.3886076,69.4635678 C29.3392405,70.0125628 28.9620253,70.3266332 28.4822785,70.3266332 L28.4822785,70.3291457 Z" id="Shape" fill="#FFFFFF"></path>
                <path d="M42.7974684,47.8555276 L44.9493671,47.8555276 C45.1590955,47.8555276 45.3291139,48.0242645 45.3291139,48.2324121 L45.3291139,65.7650754 C45.3291139,65.9732229 45.1590955,66.1419598 44.9493671,66.1419598 L42.7974684,66.1419598 C42.5902158,66.1385312 42.4240218,65.9707943 42.4240506,65.7650754 L42.4240506,48.2286432 C42.4260803,48.0243926 42.5916848,47.858922 42.7974684,47.8555276 L42.7974684,47.8555276 Z" id="Path" fill="#FFFFFF"></path>
                <path d="M6.12025316,49.4233668 C6.04810127,51.6407035 5.99367089,55.9899497 5.4,59.6557789 C4.75696203,63.6532663 3.22911392,66.0251256 0.492405063,66.1809045 C0.14556962,66.1721106 0.0481012658,66.031407 -7.10542736e-15,65.6545226 L-7.10542736e-15,64.0678392 C-7.10542736e-15,63.6758794 0.0936708861,63.5025126 0.536708861,63.4095477 C2.53670886,62.9886935 3.36455696,59.9711055 3.8164557,56.6746231 C4.26329114,53.419598 4.26962025,49.9095477 4.28860759,48.4309045 C4.3164557,48.1042714 4.41518987,47.8567839 4.91392405,47.8567839 L12.4291139,47.8567839 C12.6388423,47.8567839 12.8088608,48.0255208 12.8088608,48.2336683 L12.8088608,65.7650754 C12.8088608,65.9732229 12.6388423,66.1419598 12.4291139,66.1419598 L10.2772152,66.1419598 C10.0699626,66.1385312 9.90376868,65.9707943 9.90379747,65.7650754 L9.90379747,49.4233668 L6.12025316,49.4233668 Z" id="Path" fill="#FFFFFF"></path>
                <path d="M16.3734177,47.8555276 L18.5189873,47.8555276 C18.7287157,47.8555276 18.8987342,48.0242645 18.8987342,48.2324121 L18.8987342,55.2889447 L19.6468354,55.2889447 C23,55.3027638 26.8329114,56.4698492 26.9037975,60.5339196 C26.9848101,65.1746231 22.8708861,66.1444724 19.6468354,66.1419598 L16.378481,66.1419598 C16.1687526,66.1419598 15.9987342,65.9732229 15.9987342,65.7650754 L15.9987342,48.2286432 C15.9987342,48.0204957 16.1687526,47.8517588 16.378481,47.8517588 L16.3734177,47.8555276 Z M18.8936709,56.830402 L18.8936709,64.5577889 L19.6417722,64.5577889 C21.8607595,64.571608 23.8987342,63.2211055 23.8924051,60.5841709 C23.8860759,57.9472362 21.5025316,56.8253769 19.6417722,56.8253769 L18.8936709,56.830402 Z" id="Shape" fill="#FFFFFF"></path>
                <path d="M29.2329114,47.8555276 L33.8126582,47.8492462 C36.8772152,47.8492462 39.243038,49.4698492 39.1936709,52.3718593 C39.156962,54.580402 37.0506329,55.9874372 36.2911392,56.2663317 C38.4189873,56.7688442 40.1063291,58.508794 40.1455696,60.75 C40.2139241,64.7072864 36.3683544,66.1620603 33.064557,66.1520101 L29.2329114,66.1394472 C29.023183,66.1394472 28.8531646,65.9707103 28.8531646,65.7625628 L28.8531646,48.2286432 C28.8531646,48.0204957 29.023183,47.8517588 29.2329114,47.8517588 L29.2329114,47.8555276 Z M31.7531646,49.4007538 L31.7531646,55.7600503 L32.6037975,55.7776382 C34.4721519,55.8165829 36.2139241,54.6997487 36.2088608,52.451005 C36.2088608,50.361809 34.4493671,49.4007538 32.6392405,49.4007538 L31.7531646,49.4007538 Z M31.7531646,57.3065327 L31.7531646,64.5653266 L33.0012658,64.5653266 C35.1379747,64.5653266 37.0139241,63.3919598 37.0063291,60.7964824 C37,58.2751256 35.0594937,57.3040201 32.7493671,57.3040201 L31.7531646,57.3065327 Z" id="Shape" fill="#FFFFFF"></path>
                <path d="M49.0202532,47.8555276 L53.6,47.8492462 C56.664557,47.8492462 59.0303797,49.4698492 58.9822785,52.3718593 C58.9443038,54.580402 56.8379747,55.9874372 56.0797468,56.2663317 C58.2063291,56.7688442 59.8936709,58.508794 59.9329114,60.75 C60.0012658,64.7072864 56.156962,66.1620603 52.8531646,66.1520101 L49.0202532,66.1394472 C48.8105248,66.1394472 48.6405063,65.9707103 48.6405063,65.7625628 L48.6405063,48.2286432 C48.6405063,48.0204957 48.8105248,47.8517588 49.0202532,47.8517588 L49.0202532,47.8555276 Z M51.5405063,49.4007538 L51.5405063,55.7600503 L52.3911392,55.7776382 C54.2594937,55.8165829 56.0012658,54.6997487 55.9962025,52.451005 C55.9962025,50.361809 54.2379747,49.4007538 52.4265823,49.4007538 L51.5405063,49.4007538 Z M51.5405063,57.3065327 L51.5405063,64.5653266 L52.7886076,64.5653266 C54.9253165,64.5653266 56.8012658,63.3919598 56.7936709,60.7964824 C56.7873418,58.2751256 54.8468354,57.3040201 52.5379747,57.3040201 L51.5405063,57.3065327 Z" id="Shape" fill="#FFFFFF"></path>
                <path d="M49.8860759,42.3567839 C49.8860759,42.6419598 49.9873418,42.7550251 50.0911392,42.8002513 C50.1435136,42.8208967 50.199342,42.831552 50.2556962,42.8316583 C50.9139241,42.8580402 51.1316456,42.9572864 51.1291139,42.4183417 C51.1291139,41.2600503 51.1050633,39.2650754 51.0886076,38.258794 C51.0746835,37.4133166 51.0886076,36.5603015 51.0696203,35.7148241 C51.021519,33.0326633 50.8860759,30.3379397 50.943038,27.6545226 C51.464557,27.6545226 52.0367089,27.6708543 52.556962,27.678392 C52.4734177,27.7349246 52.3974684,27.678392 52.378481,28.1432161 C52.3253165,29.4271357 52.3278481,31.129397 52.3392405,32.4610553 C52.3493671,33.4409548 52.3392405,34.428392 52.3455696,35.4082915 C52.3670886,37.5376884 52.2924051,39.9309045 52.2924051,42.0665829 C52.2924051,42.4711055 52.2405063,43.4045226 52.2544304,43.8015075 C52.2322065,43.8928995 52.2481884,43.9893273 52.2987375,44.0688391 C52.3492867,44.1483509 52.4301017,44.2041805 52.5227848,44.2236181 C52.6860759,44.209799 52.9025316,44.209799 53.1088608,44.201005 C53.3455696,44.1871859 53.3620253,44.1758794 53.3620253,43.7952261 C53.3620253,43.6796482 53.335443,43.4309045 53.3379747,43.1557789 C53.3443038,42.3819095 53.3506329,40.8065327 53.3518987,40.0326633 C53.3518987,39.6281407 53.3405063,39.2223618 53.3392405,38.8178392 C53.3392405,38.0389447 53.3392405,37.258794 53.3316456,36.4836683 C53.321519,35.5628141 53.3012658,34.6457286 53.2848101,33.7273869 C53.278481,33.3592965 53.2683544,32.9924623 53.264557,32.6243719 C53.2552743,31.870603 53.2481013,31.1168342 53.243038,30.3630653 C53.235443,29.5979899 53.2911392,28.5 53.2886076,27.6959799 C53.8392405,27.709799 54.3835443,27.7324121 54.8405063,27.7550251 C54.8329114,28.1658291 54.8278481,28.6532663 54.8278481,28.9133166 C54.8278481,30.9824121 54.6341772,33.0502513 54.6088608,35.1180905 C54.5974684,36.0703518 54.6088608,37.0288945 54.6088608,37.9798995 C54.5936709,39.2726131 54.5911392,41.1947236 54.6531646,42.4409548 C54.6759494,42.9271357 54.7392405,42.8856784 54.878481,42.9045226 C55.0602138,42.9219598 55.2427429,42.9299272 55.4253165,42.928392 C55.5417722,42.928392 55.7974684,42.9824121 55.7822785,42.5515075 C55.7898734,41.7650754 55.721519,40.7851759 55.7303797,40.0163317 C55.7417722,38.9258794 55.7544304,37.8366834 55.778481,36.75 C55.7962025,35.8580402 55.8202532,34.9673367 55.8316456,34.0728643 C55.8594937,32.001675 55.8620253,29.9292295 55.8392405,27.8555276 L55.8392405,27.8065327 C55.9493671,27.8128141 56.0189873,27.8153266 56.0367089,27.8153266 C56.2392405,27.8153266 56.5746835,27.7851759 56.9632911,27.7625628 C56.9556962,28.6859296 56.935443,29.548995 56.935443,30.4585427 C56.935443,32.2788945 56.9443038,34.1017588 56.9240506,35.9183417 C56.9139241,36.7562814 56.9240506,37.5992462 56.9177215,38.4371859 C56.9063291,39.5741206 56.9037975,41.2977387 56.9531646,42.3944724 C56.9721519,42.8228643 57.0177215,42.8429648 57.1012658,42.910804 C57.2493671,42.910804 57.6075949,42.8693467 57.7481013,42.8630653 C57.9329114,42.8140704 57.9949367,42.7701005 57.978481,42.4861809 C57.9848101,41.7939698 57.9506329,40.9070352 57.956962,40.2311558 C57.9658228,39.2713568 57.9772152,38.3115578 57.9962025,37.3530151 C58.0303797,35.5577889 58.0620253,33.7613065 58.0582278,31.9648241 C58.0582278,29.5389447 57.9987342,27.1809045 58.043038,24.7361809 C58.0493671,24.339196 58.056962,23.7550251 58.0582278,23.2286432 C58.3213767,23.2300316 58.5840934,23.2073223 58.843038,23.160804 C58.9641814,23.1216078 59.0521558,23.0172245 59.0696203,22.8919598 C59.0772152,22.7085427 59.1151899,22.6595477 58.9227848,22.5690955 C58.3455696,22.388191 57.6898734,21.2738693 57.443038,20.6256281 C56.7911392,18.9120603 55.4177215,18.4786432 54.6582278,18.2939698 C54.6202532,17.9937186 54.7417722,17.1080402 54.8025316,16.1733668 C54.9873418,15.9886935 55.0177215,15.7675879 55.0177215,15.419598 C55.0177215,14.9874372 54.7531646,14.4924623 54.3063291,14.388191 L54.3063291,14.388191 C54.3063291,13.6959799 54.3189873,12.7675879 54.4481013,12.2939698 C54.4278481,11.9849246 54.9683544,12.0917085 55.3265823,12.0954774 C55.8329114,12.0954774 55.8518987,11.6771357 55.3974684,11.5929648 C55.1924051,11.5540201 54.7177215,11.5690955 54.5189873,11.5577889 C54.4025316,11.1155779 54.5392405,10.9648241 54.6329114,10.281407 C54.7670886,9.30276382 54.1683544,9.24371859 53.9886076,10.1143216 C54.0341772,10.4346734 53.8050633,11.5276382 53.7607595,11.5452261 C53.4189873,11.5452261 52.9189873,11.5301508 52.7088608,11.6457286 C52.4278481,11.798995 52.4493671,12.0615578 52.7455696,12.1143216 C52.8493671,12.1331658 53.1936709,12.0879397 53.4797468,12.1268844 C53.8455696,12.111809 53.7873418,12.1168342 53.7848101,12.2437186 C53.7772152,12.6984925 53.7848101,13.6055276 53.778481,14.2763819 C53.321519,14.3844221 52.2810127,15.4974874 52.8443038,16.0238693 C53.2734177,16.4233668 53.1151899,17.5213568 53.1291139,18.2110553 C51.0506329,18.9396985 50.4911392,21.0653266 49.5151899,22.6281407 C49.440384,22.7295191 49.3277786,22.796935 49.2025316,22.8153266 C48.9493671,22.8768844 48.9493671,23.218593 49.3506329,23.2449749 L49.856962,23.2776382 L49.856962,23.3278894 C49.8202532,24.5753769 49.856962,25.8178392 49.856962,27.0653266 C49.7544304,27.0653266 49.4772152,27.080402 49.3696203,27.0816583 C49.2620253,27.0829146 49.2708861,27.2311558 49.2696203,27.2927136 C49.2696203,27.571608 49.3708861,27.6469849 49.5012658,27.669598 C49.5518987,27.669598 49.7860759,27.669598 49.8405063,27.669598 C49.8202532,28.2135678 49.7949367,28.758794 49.7911392,29.2713568 C49.7911392,29.9396985 49.7911392,31.0665829 49.7911392,31.7349246 C49.7911392,32.0841709 49.8063291,32.4334171 49.8101266,32.7839196 C49.8164557,33.4547739 49.8101266,34.129397 49.8278481,34.7939698 C49.843038,35.5879397 49.8696203,36.379397 49.8911392,37.1733668 C49.8987342,37.4899497 49.9101266,37.8015075 49.9164557,38.1243719 C49.9291139,38.7763819 49.9392405,39.428392 49.9506329,40.080402 C49.9620253,40.7638191 49.9012658,41.6633166 49.9113924,42.3630653 L49.8860759,42.3567839 Z M55.378481,24.5452261 C55.3417722,24.0025126 54.935443,23.6494975 54.4670886,23.3969849 C55.3443038,23.3856784 56.1594937,23.3530151 57.0493671,23.2927136 L57.0405063,23.7726131 C57.0240506,24.709799 56.9822785,25.6444724 56.9620253,26.5816583 C56.9620253,26.741206 56.9620253,26.9020101 56.9620253,27.0628141 C56.5898734,27.0628141 56.2822785,26.9949749 55.9063291,26.9949749 C54.9911392,26.9949749 52.0037975,26.9949749 50.9594937,26.9949749 C50.9886076,25.7788945 51,24.5364322 51.0481013,23.3379397 C51.8303797,23.3731156 52.6177215,23.3957286 53.3924051,23.4020101 C53.0126582,23.6394472 52.7303797,24.0967337 52.564557,24.4798995 C52.2708861,25.1582915 52.3594937,25.7826633 53.3696203,26.2298995 C54.6443038,26.7914573 55.3670886,25.6896985 55.3835443,24.5477387 L55.378481,24.5452261 Z M57.1265823,22.6331658 C56.9063291,22.6394472 56.4151899,22.6444724 56.1987342,22.6469849 C55.7265823,22.6469849 55.2392405,22.6130653 54.7670886,22.6193467 C53.1734177,22.6444724 51.8265823,22.6444724 50.3924051,22.6444724 C51.4582278,21.8907035 51.7556962,19.7399497 52.6367089,19.0791457 C53.0340864,18.7979843 53.5134932,18.6540988 54.0012658,18.669598 C54.7607595,18.7273869 55.4708861,19.611809 55.8202532,20.2738693 C56.3962025,21.3668342 56.5696203,22.0678392 57.1316456,22.6331658 L57.1265823,22.6331658 Z" id="Shape" fill="#991477"></path>
                <path d="M28.7468354,30.6319095 C29.2531646,30.6256281 30.1506329,30.6256281 31,30.6319095 C31,30.6030151 31.0075949,30.5741206 31.0088608,30.5452261 C31.0594937,29.0929648 30.8962025,26.9371859 30.9873418,25.4849246 C30.9873418,25.4472362 30.9405063,25.3077889 31.2341772,25.3065327 C31.3759494,25.3065327 31.8670886,25.3140704 32.0050633,25.3291457 C32.2063291,25.3366834 32.2291139,25.3932161 32.2303797,25.5175879 C32.2582278,28.0816583 32.2797468,29.3404523 32.2088608,30.6394472 C33.221519,30.6469849 34.1670886,30.6582915 34.9012658,30.669598 C34.9012658,29.5942211 34.8970464,28.5188442 34.8886076,27.4434673 C34.8772152,25.508794 35.0151899,23.5590452 35,21.6243719 C35,20.9271357 35.0607595,12.6758794 35.0303797,12.6733668 C32.9177215,12.5339196 30.9670886,12.7864322 28.5962025,12.8580402 C28.4544304,17.3454774 28.5329114,24.9183417 28.7468354,30.6344221 L28.7468354,30.6319095 Z M36.121519,17.4698492 C36.1506329,23.0376884 36.2177215,28.6055276 36.2329114,34.178392 C36.2392405,36.8580402 36.2455696,39.5364322 36.2329114,42.218593 C36.2329114,43.0100503 36.2329114,43.3567839 36.2329114,43.580402 C36.2329114,44.111809 36.0810127,44.1042714 35.9481013,44.1306533 C35.7063291,44.1243719 35.4189873,44.1306533 35.1582278,44.1080402 C35.0556962,44.0992462 34.9050633,44.0100503 34.9341772,43.5075377 C34.8506329,39.4434673 34.9139241,35.3718593 34.9050633,31.3052764 C33.4683544,31.4208543 30.564557,31.5854271 28.7632911,31.5100503 C28.7936709,33.2688442 28.8291139,34.9585427 28.8012658,36.7148241 C28.7759494,38.2550251 28.656962,39.8253769 28.6582278,41.3630653 C28.6582278,41.6545226 28.6582278,42.2512563 28.6455696,42.5376884 C28.7139241,42.9145729 27.8772152,42.8266332 27.8341772,42.8266332 C27.755062,42.8321659 27.6771392,42.8051422 27.6187142,42.7519105 C27.5602893,42.6986787 27.5265117,42.6239307 27.5253165,42.5452261 C27.5253165,42.4623116 27.5253165,42.3404523 27.5253165,42.1494975 C27.5113924,41.1683417 27.5177215,40.1884422 27.5253165,39.2072864 C27.5405063,37.1683417 27.6063291,35.1306533 27.635443,33.0917085 C27.635443,32.9974874 27.635443,32.4635678 27.635443,31.5351759 C27.4379747,31.5414573 27.3151899,31.5452261 27.2886076,31.5477387 C27.178481,31.5590452 27.043038,31.531407 27.035443,31.4987437 C27.015366,31.2551302 27.0111378,31.0104853 27.0227848,30.7663317 C27.0227848,30.6959799 27.1177215,30.6469849 27.2696203,30.6532663 C27.3962025,30.6532663 27.5139241,30.6532663 27.6278481,30.6532663 C27.6151899,25.5464824 27.5759494,14.138191 27.5797468,12.9811558 C26.5886076,13.0025126 26.6759494,11.4334171 27.1518987,11.4522613 C27.9231951,11.2970222 28.6841285,11.0947971 29.4303797,10.8467337 C28.8721519,10.6909548 27.5316456,11.0150754 27,10.8178392 C26.7468354,10.7236181 26.7088608,10.4886935 26.635443,10.2638191 C26.2936709,9.20351759 26.7139241,9.5201005 27.2683544,9.42964824 C28.3050633,9.41708543 29.4531646,9.27512563 30.4582278,9.37437186 C30.7924051,8.68969849 31.3708861,7.6758794 31.2177215,6.96356784 C31.0202532,6.00879397 30.8063291,4.11432161 30.7379747,3.67964824 C30.6303797,2.93467337 31.0974684,3.01005025 31.356962,2.9861809 C31.564557,2.97236181 32.3696203,2.93467337 32.9050633,2.86055276 C33.4405063,2.78643216 34.9379747,2.27261307 35.1658228,2.90703518 C35.3075949,2.93718593 35.1518987,3.85050251 35.3620253,4.00251256 C35.4392405,4.17964824 35.4240506,4.93090452 35.235443,5.0339196 C35.0088608,5.01633166 34.2911392,5.1758794 33.8974684,5.0540201 C33.2227848,5.03140704 32.3924051,4.98994975 31.7531646,5.0678392 C31.7949367,5.86432161 32.0392405,6.70854271 31.9797468,7.29773869 C32.2860759,7.59924623 33.3810127,8.96859296 33.5531646,9.4798995 C34.0786097,9.53164039 34.607569,9.53836542 35.1341772,9.5 C35.3075949,8.51130653 36.3316456,8.53517588 36.3063291,9.5540201 C36.8025316,9.62311558 37.1303797,9.66457286 37.2417722,9.93090452 C37.2898734,10.0741206 37.0873418,11.3341709 36.9886076,12.0452261 C36.8974684,12.7236181 36.5860759,12.5791457 36.2126582,12.660804 C36.156962,12.660804 36.1265823,17.1005025 36.1278481,17.4761307 L36.121519,17.4698492 Z M32.9240506,17.3140704 C33.7227848,17.9221106 33.9367089,19.3479899 33.4848101,20.1281407 C33.4101266,20.2537688 32.9848101,20.8077889 32.7113924,20.9032663 C32,21.1545226 31.2291139,21.0854271 30.7417722,20.7864322 C30.2898734,20.5100503 29.6278481,19.1859296 29.8556962,18.6507538 C30.2544304,17.6896985 31.6278481,16.3329146 32.9240506,17.3140704 Z" id="Shape" fill="#EA7800"></path>
                <path d="M5.49113924,26.8417085 C5.18481013,26.8241206 4.70506329,26.8341709 4.38101266,26.8417085 C4.30759494,25.9233668 4.41012658,24.3969849 4.3164557,23.4623116 C4.57455186,23.4910153 4.83526922,23.4872163 5.09240506,23.451005 C5.30506329,24.8454774 5.52405063,26.5678392 5.49113924,26.8429648 L5.49113924,26.8417085 Z M10.8620253,26.781407 C10.6329114,26.7726131 10.1556962,26.7977387 9.84936709,26.7701005 C9.84936709,26.5025126 9.78860759,24.861809 9.85822785,23.3718593 C10.1533718,23.3909613 10.4495331,23.3884419 10.7443038,23.3643216 C10.8088608,24.5188442 10.8797468,25.6256281 10.8531646,26.781407 L10.8620253,26.781407 Z M10.8556962,27.4836683 C10.8949367,32.5967337 11.0126582,37.7135678 11.0506329,42.830402 C11.0506329,42.9371859 11.1683544,42.9711055 11.2683544,42.9711055 C11.2949367,42.9711055 11.8455696,43.0515075 11.9417722,42.9371859 C12.0556962,42.9371859 12,42.6859296 12,42.5917085 C12.0202532,37.5565327 11.9658228,32.4522613 11.9265823,27.4170854 L12.2544304,27.3982412 C12.4721519,27.3982412 12.5278481,26.9711055 12.5,26.8680905 C12.4854702,26.8117939 12.440574,26.7682048 12.3835443,26.7550251 C12.2405063,26.7160804 12.064557,26.7550251 11.9544304,26.7273869 C11.8810127,24.548995 11.9481013,22.6721106 11.5746835,21.0288945 C11.378481,20.1557789 11.2531646,19.5213568 11.0177215,18.6545226 C10.7936709,17.8341709 10.3531646,17.6193467 10.1518987,17.8530151 C9.83291139,18.2298995 9.55949367,20.7650754 9.41265823,21.0640704 C9.19746835,21.5012563 9.11898734,23.1896985 9.06329114,23.4711055 C8.98987342,23.1934673 8.40506329,21.379397 7.95949367,20.5351759 C8.0556962,20.0075377 7.99113924,19.2788945 8.04177215,18.7449749 C8.09873418,18.1344221 8.15189873,17.4007538 7.58227848,17.218593 C7.62405063,16.2537688 7.66835443,15.7349246 7.64556962,15.5854271 C7.70759494,15.5238693 8.0443038,15.5791457 8.24177215,15.5376884 C8.54810127,15.6520101 8.58734177,15.0929648 8.24177215,15.0050251 C8.12405063,14.9748744 7.73544304,14.9522613 7.68987342,14.9133166 C7.74177215,14.3969849 7.64810127,14.0238693 7.63670886,13.4987437 C7.62025316,12.6984925 7.2278481,12.7261307 7.1164557,13.5201005 C7.05189873,13.9824121 7.18481013,14.3806533 7.19113924,14.8605528 C6.97468354,14.830402 6.43164557,14.9384422 6.25316456,14.9861809 C5.94683544,15.111809 6.03924051,15.4208543 6.2721519,15.4409548 C6.50506329,15.4610553 6.93291139,15.410804 7.14050633,15.4170854 C7.14050633,15.5150754 7.10759494,16.2675879 7.07721519,17.419598 C6.87446452,17.7305456 6.72995213,18.0752718 6.65063291,18.4371859 C6.47721519,19.2562814 6.5556962,19.7537688 6.55316456,20.629397 C6.28734177,21.6934673 5.93164557,23.7701005 5.84556962,24.1871859 C5.81772152,23.1281407 5.36202532,21.1507538 5.32151899,20.9660804 C5.02531646,19.6369347 4.89620253,19.1582915 4.79113924,18.8404523 C4.47594937,17.888191 4.03164557,18.6042714 3.82531646,19.5577889 C3.58470756,20.6218374 3.45365481,21.7073953 3.43417722,22.7977387 C3.18101266,22.8203518 3.03291139,22.7839196 2.98607595,22.8894472 C2.91898734,23.0376884 2.97341772,23.3278894 3.11265823,23.3505025 C3.22288596,23.3738315 3.3354069,23.3847881 3.44810127,23.3831658 C3.26202532,28.1319095 3.4,33.0138191 3.3835443,37.7286432 C3.37594937,39.7273869 3.36075949,41.7248744 3.37594937,43.7236181 C3.37594937,44.0075377 3.36329114,43.9623116 3.5835443,43.9962312 C3.86263656,44.0364468 4.14464638,44.0532566 4.42658228,44.0464824 C4.54177215,44.0263819 4.63797468,44.0464824 4.62531646,43.7550251 C4.64303797,43.3090452 4.59620253,42.2537688 4.59620253,41.798995 C4.59620253,38.9723618 4.40253165,36.1959799 4.42405063,33.3668342 C4.43417722,32.1105528 4.42405063,30.8542714 4.42405063,29.5979899 C4.42405063,28.9233668 4.35822785,28.241206 4.35822785,27.4811558 L5.48734177,27.4811558 C5.41772152,30.4660804 5.37721519,33.4723618 5.35316456,36.459799 C5.33544304,38.6130653 5.46708861,41.7223618 5.47974684,43.8718593 C5.47974684,44.0653266 5.53924051,44.0967337 5.73291139,44.1130653 C5.88734177,44.1243719 6.21772152,44.129397 6.3556962,44.1356784 C6.39857922,44.1431287 6.44258249,44.1313092 6.47582588,44.1034109 C6.50906927,44.0755126 6.52812491,44.0344121 6.5278481,43.991206 C6.53417722,43.5339196 6.46582278,42.1319095 6.46582278,41.8190955 C6.46582278,39.6683417 6.19873418,37.5201005 6.21265823,35.3718593 C6.22025316,34.3831658 6.21265823,33.3869347 6.21265823,32.3982412 C6.22278481,31.1055276 6.20506329,28.7763819 6.2835443,27.4773869 L9,27.4773869 C9.01772152,29.6809045 8.98607595,31.8190955 9,34.0226131 C9.01772152,35.9849246 9.05316456,37.9472362 9.06708861,39.910804 C9.06708861,40.5879397 9.13670886,40.9974874 9.15316456,41.8165829 C9.15316456,41.9170854 9.18607595,41.9145729 9.28987342,41.9145729 L9.9,41.9547739 C10.0037975,41.9547739 10.0164557,41.9271357 10.0177215,41.8291457 C10.0405063,40.5540201 9.89873418,39.1155779 9.89113924,37.8919598 C9.88481013,36.9497487 9.89113924,36 9.89113924,35.0590452 C9.87468354,33.0113065 9.87974684,30.9635678 9.88101266,28.9158291 C9.88101266,28.5766332 9.88101266,27.910804 9.86708861,27.4798995 L10.8556962,27.4836683 Z M9.92151899,22.7826633 C9.95475994,22.4038073 10.0186795,22.0282222 10.1126582,21.6595477 C10.2772152,21.0201005 10.5202532,20.5552764 10.6468354,22.1243719 C10.656962,22.1457286 10.6746835,22.3907035 10.6987342,22.7650754 C10.4395424,22.7553359 10.1799941,22.7612093 9.92151899,22.7826633 L9.92151899,22.7826633 Z M4.1443038,22.8291457 C4.14809262,22.1773337 4.19035914,21.5263018 4.27088608,20.879397 C4.37341772,20.0703518 4.40759494,19.8856784 4.65063291,21.1030151 C4.82151899,21.9824121 5.04810127,22.8680905 5.04810127,22.8756281 C4.75063291,22.8517588 4.36582278,22.8492462 4.1443038,22.8291457 Z M9.06202532,26.8040201 C8.24556962,26.8178392 6.91898734,26.8517588 6.3443038,26.8655779 C6.32405063,25.9258794 7.07974684,21.6557789 7.35696203,21.7550251 C7.99746835,22.2386935 8.86582278,25.6947236 9.06202532,26.8040201 Z M7.23670886,31.3140704 C7.18734177,30.3756281 8.0721519,29.991206 8.23037975,31.2248744 C8.24683544,33.3781407 8.23037975,33.7374372 8.23797468,36.8442211 C8.23797468,37.0791457 8.30759494,38.7537688 8.29493671,38.9798995 C8.33417722,39.1947236 8.10632911,39.1532663 8.10126582,39.1545226 C7.87341772,39.1545226 7.60632911,39.1721106 7.3835443,39.1545226 C7.24810127,39.1457286 7.17341772,39.2110553 7.15949367,38.9309045 C7.07721519,37.2889447 7.02405063,33.4032663 7.23670886,31.3140704 L7.23670886,31.3140704 Z" id="Shape" fill="#009038"></path>
                <path d="M17.2949367,12.4711055 L21.7177215,12.4711055 C21.6708861,11.8140704 21.2556962,10.8919598 20.7620253,10.451005 C20.0367089,9.8040201 19.056962,9.70854271 18.4594937,10.0741206 C17.9696203,10.3743719 17.7139241,10.7424623 17.521519,11.3379397 C17.4531646,11.548995 17.3303797,12.2286432 17.2949367,12.468593 L17.2949367,12.4711055 Z M20.635443,16.3844221 C20.635443,15.7462312 20.7886076,15.4547739 21.1265823,15.4522613 C21.464557,15.4497487 21.6987342,15.8957286 21.678481,16.5226131 C21.6417722,17.6369347 21.5886076,18.4070352 21.5822785,19.1532663 C21.8759494,19.1532663 22.6898734,19.1457286 23.343038,19.138191 C23.3886076,16.9334171 23.4316456,15.3517588 23.4291139,15.1809045 C23.4227848,14.6356784 23.4177215,13.9246231 23.4417722,13.3153266 C23.2445667,13.3296276 23.0465726,13.3296276 22.8493671,13.3153266 C20.1341772,13.5439698 17.9126582,13.5590452 15.5620253,13.1507538 C15.6227848,14.1155779 15.8620253,16.4346734 15.8987342,19.2022613 L17.4037975,19.1871859 C17.4455696,18.3165829 17.6227848,17.3027638 17.6037975,16.370603 C17.5886076,15.6557789 17.9177215,15.1896985 18.2012658,15.1658291 C18.5227848,15.138191 18.6746835,15.5540201 18.6873418,16.1708543 C18.7037975,16.9962312 18.6278481,18.3065327 18.6101266,19.1746231 C19.4556962,19.1658291 20.2126582,19.160804 20.5848101,19.1582915 C20.6063291,18.3015075 20.6316456,17.2613065 20.635443,16.379397 L20.635443,16.3844221 Z M21.5544304,35.1432161 C21.5987342,34.1143216 21.1620253,33.5175879 20.7493671,33.620603 C20.4658228,33.6922111 20.1278481,34.0540201 20.0278481,34.9773869 C20.0151899,36.9359296 19.935443,40.5741206 19.9443038,42.4057789 C19.8835443,42.8027638 20.1974684,42.7525126 20.3240506,42.7537688 C20.5227848,42.7537688 21.3367089,42.798995 21.4632911,42.798995 C21.5898734,42.798995 21.6265823,42.790201 21.621519,42.5276382 C21.621519,42.4020101 21.621519,42.1507538 21.621519,41.7738693 C21.6316456,40.9547739 21.6050633,36.169598 21.564557,35.1419598 L21.5544304,35.1432161 Z M18.5670886,34.9824121 C18.6,34.0037688 18.2556962,33.5628141 17.9164557,33.5854271 C17.6531646,33.6017588 17.1898734,33.8165829 17.1075949,34.8165829 C17.0873418,38.8077889 16.9670886,34.7738693 16.9658228,40.5376884 C16.9658228,40.9736181 16.9759494,42.031407 16.9911392,42.459799 C16.9620253,42.7110553 17.0835443,42.7437186 17.1658228,42.7537688 C17.2481013,42.7638191 17.9531646,42.7650754 18.2405063,42.7776382 C18.4493671,42.7876884 18.4860759,42.7361809 18.4936709,42.5075377 C18.4936709,42.3894472 18.4936709,42.2650754 18.4936709,41.8592965 C18.5,40.1331658 18.5949367,36.6934673 18.5670886,34.9824121 L18.5670886,34.9824121 Z M20.3506329,24.008794 C20.3696203,22.4836683 21.5379747,21.8542714 21.6518987,23.8454774 C21.6607595,26.1520101 21.5481013,28.1545226 21.6075949,30.7487437 C22.0164557,30.7386935 22.6772152,30.7261307 23.0658228,30.7110553 C23.1126582,28.6155779 23.2227848,26.0628141 23.2392405,23.6306533 C23.2481013,22.339196 23.3177215,21.0967337 23.3329114,19.8065327 C20.8924051,19.9057789 18.3531646,19.8329146 15.9063291,19.9384422 C15.9518987,23.5477387 15.7949367,27.1645729 15.7797468,30.7738693 L17.1924051,30.7839196 C17.1924051,30.1683417 17.1683544,29.5502513 17.1683544,28.9334171 C17.1683544,23.4761307 17.1556962,27.1658291 17.1772152,23.3856784 C17.2734177,22.370603 17.578481,22.3115578 17.8683544,22.3517588 C18.1974684,22.3982412 18.443038,22.6670854 18.4088608,23.5427136 C18.4405063,25.1633166 18.4810127,28.4095477 18.4746835,30.0464824 C18.4746835,30.5025126 18.4848101,30.6746231 18.4746835,30.7851759 C18.9506329,30.7851759 19.6949367,30.7851759 20.1683544,30.7751256 C20.1620253,30.6595477 20.1683544,30.4660804 20.1683544,30.0653266 C20.1594937,29.2550251 20.3164557,25.0238693 20.3556962,24.008794 L20.3506329,24.008794 Z M15.935443,11.7889447 C16.0759494,11.6507538 16.2417722,11.1407035 16.2759494,11.0628141 C16.8316456,9.58668342 18.0164557,9.14824121 18.6949367,8.8178392 C18.7202532,8.08919598 18.7455696,7.10301508 18.7759494,6.62060302 C18.8189873,5.92713568 18.4582278,5.78140704 18.7164557,5.28266332 C18.8303797,5.06281407 19.3050633,4.7638191 19.3493671,4.7638191 C19.3835443,4.05778894 19.4,3.11683417 19.3139241,2.70351759 C19.3481013,2.4258794 18.8556962,2.49371859 18.5341772,2.47864322 C18.0734177,2.45728643 18.0898734,1.99371859 18.5025316,1.94095477 C18.7439279,1.93163289 18.9856618,1.93582715 19.2265823,1.95351759 L19.2265823,1.9459799 C19.226575,1.9138545 19.2524481,1.88761819 19.2848101,1.88693467 L19.3151899,1.88693467 C19.4126582,1.54648241 19.3392405,1.39572864 19.2949367,0.81281407 C19.2265823,-0.074120603 19.8012658,-0.0929648241 19.9088608,0.699748744 C19.8518987,0.983668342 19.964557,1.96733668 20.0025316,1.9861809 C20.3101266,2.00376884 20.7329114,2.01507538 20.9151899,2.12939698 C21.1607595,2.28266332 21.1227848,2.59798995 20.8531646,2.63190955 C20.7582278,2.64321608 20.5329114,2.59045226 20.2746835,2.61055276 C19.9468354,2.57663317 19.9987342,2.58417085 19.9936709,2.69849246 C19.9772152,3.10678392 19.9341772,4.06532663 19.9050633,4.76633166 L19.9113924,4.76633166 C20.5797468,4.94723618 21.0620253,5.87939698 20.5620253,6.46231156 C20.3012658,6.76758794 20.3696203,6.6218593 20.3696203,7.10175879 C20.3696203,7.32286432 20.3367089,8.12688442 20.3379747,8.79396985 C21.1063291,9.2160804 22.3126582,9.54020101 23.3088608,11.4020101 C23.3518987,10.5226131 23.2670886,9.54648241 23.3493671,8.56658291 C23.4405063,7.49120603 24.0974684,7.72110553 24.2265823,8.53768844 C24.3971844,9.77736777 24.4977635,11.0255497 24.5278481,12.2763819 C24.678481,12.2939698 24.9075949,12.2763819 25.0873418,12.3592965 C25.2202532,12.4208543 25.1911392,12.7424623 25.1177215,12.8354271 C24.957679,13.0088197 24.7621831,13.1463057 24.5443038,13.2386935 C24.5721519,15.0603015 24.5556962,17.3140704 24.5620253,19.1105528 L24.9797468,19.1105528 C25.2012658,19.1105528 25.1962025,19.3065327 25.1708861,19.4535176 C25.1682329,19.5740379 25.0707857,19.6713033 24.9493671,19.6746231 C24.8139241,19.6909548 24.7189873,19.7060302 24.5810127,19.7110553 C24.5987342,25.3844221 24.6126582,35.5075377 24.6202532,35.9309045 C24.6278481,36.4208543 24.6202532,36.9145729 24.6202532,37.4057789 C24.6202532,37.6570352 24.6341772,40.3253769 24.6303797,40.580402 C24.6240506,41.0703518 24.6075949,41.8957286 24.5936709,42.3844221 C24.5860759,42.5992462 24.7025316,42.8869347 24.4278481,42.8869347 L23.2481013,42.8869347 C23.0987342,42.8869347 23.078481,42.8957286 23.0708861,42.7273869 C22.9379747,39.5326633 23.0632911,37.6670854 23.0316456,35.25 C23.0316456,35.080402 23.0113924,33.5351759 23.0620253,31.370603 C20.6797468,31.4409548 18.1620253,31.428392 15.7835443,31.4233668 C15.7544304,35.5816583 15.5898734,39.6319095 15.4037975,43.7550251 C15.4278481,43.9095477 15.356962,43.9610553 15.2329114,43.9811558 C15.009994,44.0104648 14.7855853,44.027242 14.5607595,44.031407 C14.5,44.031407 14.3265823,44.031407 14.3341772,43.7625628 C14.4443038,40.3907035 14.5607595,36.9535176 14.5556962,33.5690955 C14.5556962,32.8153266 14.6151899,32.1871859 14.6139241,31.4258794 C14.4797468,31.4258794 14.2417722,31.4258794 14.1518987,31.4258794 C14.0620253,31.4258794 13.8544304,31.4748744 13.8544304,31.2726131 L13.8278481,30.9145729 C13.8088608,30.6633166 14.3987342,30.7349246 14.6139241,30.7537688 C14.7088608,27.2047739 14.7506329,23.6042714 14.6405063,19.9635678 L14.3531646,19.9635678 C14.2759494,19.9635678 14.0278481,19.9761307 13.9734177,19.5339196 C13.9734177,19.4723618 13.9620253,19.2562814 14.0835443,19.2600503 C14.2481013,19.2537688 14.4632911,19.2311558 14.6417722,19.2273869 C14.6265823,16.5640704 14.6101266,14.3278894 14.5987342,13.3379397 C14.4987342,11.7123116 14.3455696,10.4271357 14.7101266,9.2298995 C14.9075949,8.57160804 15.3886076,9.08040201 15.5265823,9.67085427 C15.6113924,10.1331658 15.8,11.0904523 15.935443,11.7889447 L15.935443,11.7889447 Z" id="Shape" fill="#DC200E"></path>
                <path d="M43.5481013,10.9836683 C43.7835443,14.3592965 44.6708861,17.0351759 46.0797468,19.0452261 C45.8809578,19.0690716 45.679581,19.060585 45.4835443,19.0201005 C45.343038,18.9937186 45.3493671,18.9560302 45.2734177,18.8417085 C44.6936709,17.2361809 42.235443,16.9208543 41.3088608,18.951005 C40.942379,18.9844998 40.5740812,18.994152 40.2063291,18.9798995 C41.1911392,17.7135678 42.7379747,13.8806533 43.0012658,11.201005 C43.0113924,10.7537688 43.543038,10.6432161 43.5455696,10.9836683 L43.5481013,10.9836683 Z M48.0075949,19.1168342 C47.6822785,19.0150754 47.3886076,18.6494975 47.2113924,18.3354271 C47.2468354,17.6658291 47.3025316,16.7462312 47.3037975,16.4422111 C47.378481,15.5025126 46.6202532,15.5464824 46.4721519,16.2236181 L46.3088608,16.9773869 C45.078481,14.5628141 44.8050633,12.5992462 44.8987342,9.64572864 C45.0925689,9.31865102 45.1780231,8.93942261 45.143038,8.56155779 C45.0240506,7.50125628 44.1810127,7.58165829 43.7253165,7.49371859 C43.7253165,7.36809045 43.835443,4.98994975 43.9202532,4.85552764 C43.9278481,4.76633166 44.456962,4.73869347 44.6632911,4.70979899 C45.2126582,4.63190955 45.1253165,4.33291457 44.5772152,4.15452261 C44.4506329,4.11306533 44.135443,4.15452261 43.9518987,4.20477387 C43.8848101,4.1419598 43.9101266,3.91080402 43.8835443,3.40577889 C43.8481013,2.7160804 43.3898734,2.29145729 43.2392405,3.33542714 C43.1544304,3.9321608 43.1518987,4.03015075 43.2544304,4.19974874 C42.764557,4.25628141 42.6734177,4.22236181 42.3455696,4.24497487 C41.7822785,4.28266332 42.0177215,4.74748744 42.5151899,4.8178392 C42.7746835,4.85175879 43.121519,4.8781407 43.2303797,4.83668342 C43.3177215,4.94723618 43.1151899,7.30904523 43.1708861,7.58919598 C42.4848101,7.83165829 42.3405063,8.93090452 42.3189873,9.70728643 C42.2316456,12.8140704 41.3987342,14.5979899 39.8278481,17.3831658 L39.7278481,16.2625628 C39.7278481,15.3241206 38.9493671,15.3831658 38.9518987,16.0678392 L38.9620253,18.580402 C38.7843448,18.8414217 38.5515252,19.0609117 38.2797468,19.2236181 C38.1708861,19.2851759 38.1417722,19.3128141 38.1329114,19.4070352 C38.1116318,19.5160211 38.1358432,19.6289115 38.2,19.7198492 C38.2217547,19.7528249 38.2578421,19.7737559 38.2974684,19.7763819 C38.4240506,19.8015075 38.7708861,19.7763819 38.9443038,19.7763819 C38.9443038,20.8128141 38.978481,22.3052764 38.9708861,23.3379397 C38.9599156,24.9652429 38.9447257,26.5921273 38.9253165,28.218593 C38.8974684,30.2738693 38.8797468,32.3115578 38.8683544,34.3630653 C38.8556962,37.1042714 38.8443038,39.8454774 38.8683544,42.5866834 C38.8683544,43.0339196 38.856962,43.4170854 38.856962,43.5741206 C38.856962,43.919598 39.0063291,43.9824121 39.2759494,44.0226131 C39.5302058,44.0645118 39.7887055,44.0750608 40.0455696,44.0540201 C40.1860759,44.0288945 40.3443038,44.0339196 40.3291139,43.6771357 C40.3493671,43.1319095 40.2936709,39.0816583 40.2924051,38.5263819 C40.2924051,37.6243719 40.2531646,36.7273869 40.2075949,35.830402 C41.4734177,35.8505025 44.1594937,35.8630653 45.9620253,35.8743719 C45.9620253,38.0515075 45.9822785,40.2336683 45.9873418,42.4183417 C45.9873418,42.8203518 46.1139241,42.8768844 46.2,42.9020101 C46.3683544,42.8856784 46.7974684,42.9334171 47.0012658,42.9359296 C47.0835443,42.9359296 47.2987342,43.0150754 47.3113924,42.5816583 C47.3113924,42.4396985 47.3113924,42.2135678 47.3113924,41.7022613 C47.3177215,40.8467337 47.2189873,37.4158291 47.1949367,35.8819095 C47.3354941,35.8944746 47.4766053,35.8999256 47.6177215,35.8982412 C47.7797468,35.9233668 47.9151899,35.8907035 47.9177215,35.8404523 C47.9467462,35.6682122 47.9598808,35.4937037 47.956962,35.3190955 C47.9658228,35.1934673 47.8303797,35.1633166 47.6860759,35.1683417 C47.456962,35.1683417 47.3987342,35.1683417 47.1860759,35.1683417 C47.1860759,33.2600503 47.0936709,31.3505025 47.0594937,29.4422111 C47.0379747,28.178392 47.0696203,26.9133166 47.0594937,25.6494975 C47.043038,23.8907035 47.1860759,21.5452261 47.1860759,19.7826633 C47.4129315,19.7461836 47.6377108,19.6979604 47.8594937,19.638191 C48.0848101,19.5791457 48.2392405,19.1733668 48.0037975,19.1105528 L48.0075949,19.1168342 Z M46.0443038,19.9396985 C45.6496597,20.0035674 45.2504893,20.0359157 44.8506329,20.0364322 C44.5253165,20.0276382 44.3164557,19.9610553 44.1506329,19.638191 C43.0810127,17.5565327 42.3911392,18.8316583 41.7860759,19.5917085 C41.6362473,19.7382633 41.4282182,19.8106169 41.2189873,19.7889447 C40.7911392,19.7726131 40.2341772,19.7889447 39.9291139,19.7889447 C39.9860759,21.6394472 39.9835443,24.4786432 39.9696203,26.3844221 C39.9594937,27.8040201 40.0607595,29.2349246 40.0506329,30.6557789 C40.0379747,32.1633166 40.0949367,33.6331658 40.1772152,35.2223618 C41.6126582,35.1972362 44.5050633,35.169598 45.9632911,35.1796482 C45.9632911,33.2688442 46.0037975,31.3592965 45.9860759,29.4484925 C45.9759494,28.2022613 46.0240506,26.9447236 46.0139241,25.6972362 C46.0012658,24.1268844 45.9987342,21.5213568 46.043038,19.9396985 L46.0443038,19.9396985 Z M43.6037975,26.9748744 C43.5481013,26.0201005 44.5556962,25.629397 44.7367089,26.8844221 C44.7556962,29.0753769 44.743038,26.3693467 44.7443038,29.5339196 C44.7443038,29.7726131 44.7341772,30.330402 44.7189873,30.5653266 C44.764557,30.7839196 44.5063291,30.7550251 44.5025316,30.7550251 C44.2485556,30.7912366 43.991454,30.8009211 43.735443,30.7839196 C43.5936709,30.6582915 43.6417722,30.6582915 43.6341772,30.178392 C43.6265823,29.6984925 43.5924051,29.8555276 43.5911392,29.3969849 C43.5911392,29.1582915 43.6025316,29.0615578 43.6037975,28.821608 C43.5949367,27.6984925 43.6037975,27.5100503 43.6037975,26.9748744 L43.6037975,26.9748744 Z M42.5746835,27.0653266 C42.5025316,27.888191 42.5278481,29.6180905 42.5316456,30.4572864 C42.5316456,30.6645729 42.3708861,30.6570352 42.2936709,30.6582915 C42.0826826,30.6671293 41.8713549,30.6637736 41.6607595,30.6482412 C41.5594937,30.6482412 41.3493671,30.6557789 41.3696203,30.4472362 C41.2546807,29.2852086 41.2784743,28.1137728 41.4405063,26.9572864 C41.6582278,25.5452261 42.6417722,25.9861809 42.5746835,27.0678392 L42.5746835,27.0653266 Z" id="Shape" fill="#007DC2"></path>
            </g>
        </g>
    </g>
</svg>