<svg xmlns="http://www.w3.org/2000/svg" width="57" height="76" viewBox="0 0 57 76">
  <g fill="none" fill-rule="evenodd">
    <path fill="#FFF" d="M1.28089888,48.4967869 L3.45842697,48.4967869 C3.67065324,48.4967869 3.84269663,48.6682575 3.84269663,48.8797772 L3.84269663,65.24623 L11.9123596,64.4993989 C12.1685393,64.4751429 12.3171236,64.5530176 12.3171236,64.85175 L12.3171236,66.6977633 C12.3171236,66.909283 12.1450802,67.0807536 11.9328539,67.0807536 L1.27321348,67.0807536 C1.07137557,67.0734803 0.90963415,66.9117195 0.903033708,66.7105297 L0.903033708,66.7028699 L0.903033708,48.8759473 C0.905087581,48.6683876 1.07266445,48.5002363 1.28089888,48.4967869 Z M12.9370787,48.4967869 L15.2952135,48.4967869 C15.5027191,48.4967869 15.6077528,48.6793456 15.6730787,48.8797772 L20.5891685,63.6044782 L24.7354382,48.8797772 C24.7917978,48.6793456 24.9057978,48.4967869 25.1197079,48.4967869 L27.2101348,48.4967869 C27.4189213,48.4967869 27.6546067,48.6793456 27.5944045,48.8797772 L21.6664045,66.6964867 C21.6010787,66.8930884 21.4358427,67.079477 21.2283371,67.079477 L18.9227191,67.079477 C18.7152135,67.079477 18.5499775,66.8981949 18.4833708,66.6964867 L12.5604944,48.8759473 C12.4951685,48.6793456 12.7308539,48.4967869 12.9370787,48.4967869 Z M41.2116404,48.4967869 L43.5697753,48.4967869 C43.7772809,48.4967869 43.8823146,48.6793456 43.9540449,48.8797772 L48.8688539,63.6044782 L53.0151236,48.8797772 C53.0714831,48.6793456 53.1854831,48.4967869 53.3993933,48.4967869 L55.4898202,48.4967869 C55.6986067,48.4967869 55.935573,48.6793456 55.8740899,48.8797772 L49.9384045,66.6964867 C49.8730787,66.894365 49.7078427,67.079477 49.5003371,67.079477 L47.1947191,67.079477 C46.9872135,67.079477 46.8219775,66.8981949 46.7553708,66.6964867 L40.8324944,48.8759473 C40.7671685,48.678069 41.0028539,48.4967869 41.2116404,48.4967869 Z M33.1240449,48.4967869 L35.2951685,48.4967869 C35.5073948,48.4967869 35.6794382,48.6682575 35.6794382,48.8797772 L35.6794382,66.6964867 C35.6794382,66.9080064 35.5073948,67.079477 35.2951685,67.079477 L33.1240449,67.079477 C32.9118187,67.079477 32.7397753,66.9080064 32.7397753,66.6964867 L32.7397753,48.877224 C32.7411835,48.6667021 32.9128151,48.4967822 33.1240449,48.4967869 Z M53.7618876,72.0443081 L53.7618876,74.6384292 L54.0910787,74.6384292 C54.3614648,74.6550254 54.625106,74.5501074 54.8096629,74.3524631 C54.9800225,74.1622446 55.0658427,73.8188299 55.0658427,73.3311556 C55.0783121,73.0600922 55.0347122,72.7893694 54.9377528,72.5358123 C54.8742486,72.3709622 54.7526698,72.2348116 54.5957528,72.152822 C54.4345281,72.0819267 54.259555,72.0474845 54.0833933,72.0519679 L53.7618876,72.0443081 Z M53.9488989,71.454503 C54.5398202,71.454503 55.0128989,71.5881241 55.3681348,71.8553662 C55.7233708,72.1226084 55.9009888,72.6124104 55.9009888,73.3247724 C55.9009888,74.0226659 55.7267865,74.5141701 55.378382,74.7992851 C54.9978865,75.0960142 54.523843,75.248072 54.0411236,75.2282343 L52.958764,75.2282343 L52.958764,71.454503 L53.9488989,71.454503 Z M50.8452809,74.5835339 L52.3426517,74.5835339 L52.3426517,75.2269576 L50.0408764,75.2269576 L50.0408764,71.454503 L50.8452809,71.454503 L50.8452809,74.5835339 Z M47.1498876,73.183066 L47.5713034,73.183066 C47.7457461,73.1955051 47.9187666,73.1442256 48.0580449,73.0388063 C48.176794,72.918003 48.2366804,72.7515321 48.222,72.5830478 C48.2356894,72.4227041 48.1713778,72.2655466 48.0490787,72.1604818 C47.8881418,72.0614982 47.6995255,72.0167391 47.5111011,72.0328184 L47.1498876,72.0328184 L47.1498876,73.1881725 L47.1498876,73.183066 Z M47.5597753,73.7498916 L47.1498876,73.7498916 L47.1498876,75.2282343 L46.3454831,75.2282343 L46.3454831,71.454503 L47.5277528,71.454503 C48.0337079,71.454503 48.4154157,71.548974 48.6703146,71.7353626 C48.9325515,71.936117 49.0767547,72.254224 49.0545843,72.5830478 C49.064183,72.8028038 49.0006928,73.0195673 48.8739775,73.1996622 C48.7242606,73.3804309 48.5300781,73.519425 48.310382,73.6030787 L49.2838652,75.2282343 L48.3705843,75.2282343 L47.5597753,73.7498916 Z M43.9258652,71.96771 C43.6728295,71.954319 43.4326367,72.0796455 43.2995056,72.2945285 C43.1586067,72.5132585 43.0881573,72.8622052 43.0881573,73.3413686 C43.0881573,73.8205321 43.1594607,74.1694788 43.3020674,74.3882088 C43.4440285,74.5918593 43.67706,74.7133051 43.9258652,74.7133051 C44.1746703,74.7133051 44.4077018,74.5918593 44.5496629,74.3882088 C44.688,74.1728832 44.7571685,73.8230854 44.7571685,73.3388154 C44.7571685,72.8545454 44.688,72.5047476 44.5496629,72.2894219 C44.4165321,72.0761378 44.1775427,71.9519053 43.9258652,71.9651568 L43.9258652,71.96771 Z M43.9258652,71.3676919 C44.2405884,71.3592204 44.5513382,71.4393039 44.8224944,71.5987627 C45.079904,71.7597383 45.2822359,71.9947837 45.4027416,72.2728257 C45.6726004,72.9571558 45.6726004,73.7179217 45.4027416,74.4022518 C45.2823379,74.6813633 45.0800717,74.9176675 44.8224944,75.0801447 C44.5522046,75.2420526 44.2411004,75.3235563 43.9258652,75.3150454 C43.6111212,75.3222403 43.3006048,75.2417748 43.029236,75.0826979 C42.7704629,74.9220289 42.5671173,74.6863987 42.446427,74.4073584 C42.3037366,74.070397 42.2347433,73.7069944 42.2440449,73.3413686 C42.2352479,72.9791226 42.3056162,72.6193045 42.4502697,72.2868686 C42.5727428,72.006873 42.7760746,71.7695535 43.0343596,71.6051459 C43.3028443,71.4431535 43.6120927,71.3607846 43.9258652,71.3676919 Z M41.0259101,75.2269576 L39.9806966,75.2269576 L39.4555281,72.4260218 L38.9034607,75.2269576 L37.886427,75.2269576 L37.1704045,71.454503 L37.9735281,71.454503 L38.4653933,74.4277845 L39.0405169,71.454503 L39.8884719,71.454503 L40.4405393,74.4571471 L40.9874831,71.454503 L41.7470562,71.454503 L41.0259101,75.2269576 Z M30.5122921,73.5749927 L29.259573,73.5749927 L29.259573,75.2269576 L28.4564494,75.2269576 L28.4564494,71.454503 L29.259573,71.454503 L29.259573,72.9430587 L30.5122921,72.9430587 L30.5122921,71.454503 L31.3166966,71.454503 L31.3166966,75.2269576 L30.5122921,75.2269576 L30.5122921,73.5749927 Z M21.2193708,71.96771 C20.9663351,71.954319 20.7261423,72.0796455 20.5930112,72.2945285 C20.4521124,72.5132585 20.3816629,72.8622052 20.3816629,73.3413686 C20.3816629,73.8205321 20.4529663,74.1694788 20.595573,74.3882088 C20.7375342,74.5918593 20.9705657,74.7133051 21.2193708,74.7133051 C21.4681759,74.7133051 21.7012074,74.5918593 21.8431685,74.3882088 C21.9815056,74.1728832 22.0506742,73.8230854 22.0506742,73.3388154 C22.0506742,72.8545454 21.9815056,72.5047476 21.8431685,72.2894219 C21.7100377,72.0761378 21.4710483,71.9519053 21.2193708,71.9651568 L21.2193708,71.96771 Z M21.2193708,71.3676919 C21.534094,71.3592204 21.8448438,71.4393039 22.116,71.5987627 C22.3734096,71.7597383 22.5757415,71.9947837 22.6962472,72.2728257 C22.966106,72.9571558 22.966106,73.7179217 22.6962472,74.4022518 C22.5758435,74.6813633 22.3735773,74.9176675 22.116,75.0801447 C21.8457102,75.2420526 21.534606,75.3235563 21.2193708,75.3150454 C20.9046268,75.3222403 20.5941105,75.2417748 20.3227416,75.0826979 C20.0639686,74.9220289 19.8606229,74.6863987 19.7399326,74.4073584 C19.5972423,74.070397 19.5282489,73.7069944 19.5375506,73.3413686 C19.5287535,72.9791226 19.5991218,72.6193045 19.7437753,72.2868686 C19.8662484,72.006873 20.0695803,71.7695535 20.3278652,71.6051459 C20.5963499,71.4431535 20.9055983,71.3607846 21.2193708,71.3676919 Z M9.98588764,72.0379249 L8.53591011,72.0379249 L8.53591011,73.0196568 L9.72842697,73.0196568 L9.72842697,73.5979722 L8.53591011,73.5979722 L8.53591011,74.6384292 L9.98588764,74.6384292 L9.98588764,75.2269576 L7.73150562,75.2269576 L7.73150562,71.454503 L9.98588764,71.454503 L9.98588764,72.0379249 Z M5.48480899,73.3515817 C5.67633913,73.3643756 5.86617245,73.3087016 6.02022472,73.1945557 C6.15694292,73.0561613 6.2249783,72.8644259 6.20595506,72.6711356 C6.20595506,72.2460163 5.96258427,72.0328184 5.4732809,72.0328184 L5.12359551,72.0328184 L5.12359551,73.3515817 L5.48480899,73.3515817 Z M5.48480899,71.454503 C5.97667416,71.454503 6.35838202,71.5566338 6.62993258,71.7608953 C6.90148315,71.9651568 7.03725843,72.2685702 7.03725843,72.6711356 C7.03725843,73.0924249 6.90233708,73.4094558 6.63249438,73.6222282 C6.31876256,73.8484804 5.93687703,73.9610881 5.55013483,73.9413868 L5.12359551,73.9413868 L5.12359551,75.2282343 L4.31919101,75.2282343 L4.31919101,71.454503 L5.48480899,71.454503 Z M1.95337079,71.96771 C1.70051855,71.9551544 1.4607266,72.0802717 1.32701124,72.2945285 C1.18611236,72.5128329 1.11694382,72.8613541 1.11694382,73.3413686 C1.11694382,73.8213832 1.18739326,74.1699044 1.32957303,74.3882088 C1.47153417,74.5918593 1.70456565,74.7133051 1.95337079,74.7133051 C2.20217592,74.7133051 2.43520741,74.5918593 2.57716854,74.3882088 C2.71550562,74.1728832 2.78467416,73.8230854 2.78467416,73.3388154 C2.78467416,72.8545454 2.71550562,72.5047476 2.57716854,72.2894219 C2.44423254,72.0759284 2.20510908,71.9516263 1.95337079,71.9651568 L1.95337079,71.96771 Z M1.95337079,71.3676919 C2.26809403,71.3592204 2.57884379,71.4393039 2.85,71.5987627 C3.10773042,71.7593668 3.31015872,71.9945242 3.43024719,72.2728257 C3.70010598,72.9571558 3.70010598,73.7179217 3.43024719,74.4022518 C3.31025812,74.6816199 3.10789692,74.9180351 2.85,75.0801447 C2.57971023,75.2420526 2.26860598,75.3235563 1.95337079,75.3150454 C1.63860309,75.3224442 1.32803154,75.2419644 1.05674157,75.0826979 C0.79764413,74.9224063 0.594199941,74.686662 0.473932584,74.4073584 C0.33063275,74.0705807 0.261614235,73.7070453 0.271550562,73.3413686 C0.262349765,72.9792167 0.332280261,72.6194024 0.476494382,72.2868686 C0.599443668,72.006783 0.803208168,71.7694789 1.06186517,71.6051459 C1.33026549,71.4429561 1.63957266,71.3605716 1.95337079,71.3676919 Z M11.5114382,75.2269576 L10.7838876,75.2269576 L10.7838876,71.454503 L11.7957978,71.454503 L12.9819101,74.2120333 L12.9716629,71.454503 L13.6979326,71.454503 L13.6979326,75.2269576 L12.6642472,75.2269576 L11.5127191,72.509003 L11.5114382,75.2269576 Z M19.1148539,72.0813305 L18.0978202,72.0813305 L18.0978202,75.2269576 L17.2934157,75.2269576 L17.2934157,72.0813305 L16.2866292,72.0813305 L16.2866292,71.454503 L19.1148539,71.454503 L19.1148539,72.0813305 Z M27.8838876,72.0813305 L26.8668539,72.0813305 L26.8668539,75.2269576 L26.0637303,75.2269576 L26.0637303,72.0813305 L25.0569438,72.0813305 L25.0569438,71.454503 L27.8838876,71.454503 L27.8838876,72.0813305 Z M34.5791461,72.0379249 L33.1291685,72.0379249 L33.1291685,73.0196568 L34.3216854,73.0196568 L34.3216854,73.5979722 L33.1291685,73.5979722 L33.1291685,74.6384292 L34.5791461,74.6384292 L34.5791461,75.2269576 L32.324764,75.2269576 L32.324764,71.454503 L34.5791461,71.454503 L34.5791461,72.0379249 Z"/>
    <path fill="#991477" d="M47.6161348,42.916618 C47.6161348,43.2051374 47.7173258,43.3200345 47.8223596,43.3659933 C47.8758011,43.386984 47.9327156,43.3978094 47.9901573,43.3979092 C48.6562247,43.4247185 48.8765393,43.5255726 48.8739775,42.9778965 C48.8739775,41.8008396 48.8496404,39.7735442 48.8317079,38.75096 C48.817618,37.8917851 48.8317079,37.026227 48.8124944,36.1670521 C48.7638202,33.4414377 48.6280449,30.7017803 48.6844045,27.9761659 C49.2134157,27.9761659 49.792382,27.9914855 50.3175506,28.0004219 C50.2330112,28.0565938 50.1561573,28.0004219 50.1369438,28.4715 C50.0831461,29.7762203 50.0857079,31.5060599 50.0985169,32.8592924 C50.1074831,33.8550672 50.0985169,34.8585018 50.1049213,35.8542766 C50.1266966,38.0181719 50.0498427,40.4501604 50.0498427,42.6204389 C50.0498427,43.0315151 49.9973258,43.9800545 50.0114157,44.3834709 C49.9892971,44.4763187 50.0056264,44.5741322 50.0567187,44.6548392 C50.1078111,44.7355461 50.189361,44.7923455 50.2829663,44.8124201 C50.4482022,44.7983771 50.667236,44.7983771 50.8760225,44.7894407 C51.1168315,44.7753977 51.1322022,44.763908 51.1322022,44.3783644 C51.1322022,44.2596374 51.1065843,44.0068638 51.1078652,43.7272809 C51.1155506,42.9408741 51.1206742,41.3412512 51.1219551,40.5535678 C51.1219551,40.1424915 51.1117079,39.7314153 51.1091461,39.3190623 C51.1091461,38.527549 51.1091461,37.7347591 51.1014607,36.9470757 C51.0912135,36.0113027 51.0707191,35.0793596 51.0540674,34.1461398 C51.0476629,33.772086 51.0386966,33.3993087 51.033573,33.0252548 C51.0258876,32.2592742 51.0186292,31.4932936 51.0117978,30.727313 C51.0053933,29.9498426 51.0617528,28.8340642 51.0579101,28.0170182 C51.616382,28.0310611 52.1671685,28.0540406 52.6282921,28.07702 C52.6206067,28.4944794 52.6154831,28.9898136 52.6154831,29.2540769 C52.6154831,31.3566937 52.4207865,33.4580339 52.3951685,35.5593741 C52.3836404,36.527063 52.3951685,37.501135 52.3874831,38.4688238 C52.3733933,39.781204 52.3708315,41.7344546 52.4323146,43.0008759 C52.4566517,43.4949334 52.5206966,43.4528045 52.6603146,43.4732306 C52.8319551,43.4834437 53.0445843,43.5038699 53.2136629,43.49621 C53.3315056,43.49621 53.5902472,43.5511053 53.5748764,43.1196029 C53.5838427,42.3191531 53.5133933,41.3233783 53.5223596,40.5420781 C53.5338876,39.4352361 53.5479775,38.3271174 53.5710337,37.2228287 C53.5902472,36.3164183 53.6145843,35.4112845 53.6261124,34.5023208 C53.6534382,32.3967252 53.656,30.290704 53.6337978,28.1842573 L53.6337978,28.1344685 C53.745236,28.1344685 53.8144045,28.143405 53.8323371,28.143405 C54.0372809,28.143405 54.3767191,28.1127657 54.771236,28.0897863 C54.7622697,29.0281126 54.7430562,29.9051604 54.7430562,30.8294437 C54.7430562,32.6792869 54.7507416,34.5316834 54.7302472,36.3776967 C54.7212809,37.2292119 54.7302472,38.0858335 54.7302472,38.9373487 C54.7174382,40.0863196 54.7161573,41.8442452 54.7661124,42.958747 C54.7853258,43.3940793 54.8301573,43.4145054 54.9159775,43.4834437 C55.0658427,43.4834437 55.4283371,43.4413148 55.569236,43.4349316 C55.7575281,43.3851429 55.8254157,43.3404607 55.8023596,43.0519413 C55.8100449,42.3472391 55.7741798,41.4459352 55.7805843,40.7539994 C55.7908315,39.7786507 55.8010787,38.8033021 55.8202921,37.82923 C55.8548764,36.0049195 55.8868989,34.1793323 55.8843371,32.3537452 C55.8843371,29.8885642 55.8228539,27.4923214 55.8676854,25.0079909 C55.8753708,24.6045745 55.8817753,24.0109395 55.8830562,23.4760297 C56.1497629,23.4774248 56.4160324,23.4543481 56.6784944,23.4070914 C56.8011234,23.3676544 56.8899228,23.2612509 56.9064944,23.1338916 C56.9154607,22.947503 56.9526067,22.8977143 56.759191,22.8057966 C56.1738202,22.6219613 55.5115955,21.4895866 55.2618202,20.8308432 C54.6008764,19.0895139 53.212382,18.6490751 52.4438427,18.4614098 C52.4054157,18.1562942 52.5271011,17.2562669 52.5885843,16.306451 C52.7768764,16.1200623 52.807618,15.8940981 52.807618,15.5404703 C52.807618,15.1013081 52.5399101,14.5983142 52.0864719,14.4923535 C52.0864719,13.788928 52.1005618,12.8454952 52.2299326,12.364204 C52.2107191,12.0501519 52.7576629,12.1586659 53.1188764,12.1624958 C53.631236,12.1688789 53.6504494,11.7373765 53.1906067,11.651842 C52.9831011,11.613543 52.5040449,11.627586 52.3016629,11.6160962 C52.1838202,11.1667209 52.3221573,11.0135248 52.4169438,10.3190357 C52.5527191,9.32453753 51.9468539,9.26581235 51.7662472,10.15052 C51.8110787,10.4747851 51.5805169,11.585457 51.5356854,11.6046065 C51.1885618,11.6046065 50.6838876,11.5880103 50.4712584,11.7054607 C50.185618,11.86121 50.2073933,12.1280266 50.5071236,12.1816453 C50.6121573,12.2007948 50.9618427,12.154836 51.2500449,12.1944116 C51.6202247,12.179092 51.5613034,12.1841985 51.5600225,12.3131386 C51.5510562,12.7752803 51.5600225,13.6970103 51.553618,14.3787331 C51.0912135,14.4885236 50.0370337,15.6196217 50.6083146,16.1545315 C51.0425393,16.5605012 50.882427,17.6762797 50.8965169,18.3771519 C48.7932809,19.1175999 48.2271236,21.2776653 47.2382697,22.8657984 C47.1628715,22.9691442 47.0487755,23.0377423 46.9218876,23.0560169 C46.6657079,23.118572 46.6657079,23.4658166 47.0730337,23.4926259 L47.5853933,23.5258184 L47.5853933,23.5768838 C47.5482472,24.8445817 47.5853933,26.1084498 47.5853933,27.3748711 C47.4816404,27.3748711 47.2011236,27.3901907 47.0922472,27.3914673 C46.9833708,27.3927439 46.9923371,27.5433868 46.9923371,27.6059419 C46.9923371,27.8893547 47.0935281,27.9659528 47.2254607,27.9889322 C47.2766966,27.9953154 47.5149438,27.9889322 47.5687416,27.9889322 C47.5482472,28.5417149 47.5226292,29.0957742 47.5200674,29.616641 C47.5200674,30.2958105 47.5200674,31.4409516 47.5200674,32.1201211 C47.5200674,32.4750254 47.5354382,32.8299298 47.5392809,33.1861108 C47.5469663,33.8691102 47.5456854,34.5533862 47.5584944,35.2287258 C47.5725843,36.0355587 47.5994831,36.8398384 47.6212584,37.6466713 C47.6302247,37.9683832 47.6417528,38.2849885 47.6481573,38.6130835 C47.6609663,39.2752312 47.6720674,39.9378045 47.6814607,40.6008033 C47.6929888,41.2952924 47.6315056,42.2106392 47.6430337,42.9217246 L47.6161348,42.916618 Z M53.1726742,24.8152191 C53.136809,24.2637131 52.7256404,23.9049788 52.250427,23.6483753 C53.1393708,23.6368856 53.9629888,23.6036931 54.8634607,23.5424146 L54.8557753,24.030089 C54.8391236,24.9824582 54.795573,25.9322742 54.7763596,26.8846435 C54.7763596,27.046776 54.7763596,27.2101852 54.7763596,27.3748711 C54.3997753,27.3748711 54.0885169,27.3046562 53.7080899,27.3046562 C52.7807191,27.3046562 49.7577978,27.3046562 48.7010562,27.3046562 C48.7317978,26.0688741 48.7433258,24.8062827 48.792,23.5883735 C49.5835955,23.6241192 50.3790337,23.6470987 51.1642247,23.6534818 C50.7799551,23.8947657 50.4930337,24.3594607 50.325236,24.7488341 C50.0280674,25.4382167 50.1190112,26.072704 51.1398876,26.5271858 C52.4297528,27.0978414 53.162427,25.9782331 53.1777978,24.8177724 L53.1726742,24.8152191 Z M54.9415955,22.8721816 C54.72,22.8785648 54.2217303,22.8836713 54.0039775,22.8862246 C53.5262022,22.8926077 53.0330562,22.8517554 52.5552809,22.8581386 C50.9426292,22.8836713 49.5784719,22.8836713 48.1284944,22.8836713 C49.2057303,22.1176907 49.5067416,19.9320926 50.3995281,19.2605829 C50.8003861,18.9777602 51.2830663,18.8333934 51.7739326,18.8495067 C52.5424719,18.9095085 53.2610562,19.8069824 53.6158652,20.4797688 C54.1973933,21.5853341 54.3741573,22.2976961 54.9415955,22.8721816 Z"/>
    <path fill="#EA7800" d="M26.2187191,31.0005127 C26.7246742,30.9941295 27.6379551,30.9941295 28.4974382,31.0005127 C28.4974382,30.9711501 28.5051236,30.9417875 28.5064045,30.9124249 C28.5589213,29.4366356 28.3936854,27.245931 28.4846292,25.7701416 C28.4846292,25.7331192 28.4385169,25.5901362 28.7344045,25.5888596 C28.8791461,25.5888596 29.3748539,25.5965194 29.5144719,25.611839 C29.7181348,25.6194988 29.7424719,25.6769473 29.7437528,25.8033341 C29.7706517,28.4089449 29.7937079,29.6881326 29.7206966,31.0081725 C30.7454157,31.0158323 31.7022472,31.027322 32.4464494,31.0388117 C32.4464494,29.9460127 32.4417528,28.8532137 32.4323596,27.7604146 C32.4208315,25.7956743 32.5604494,23.8130611 32.5463596,21.8470442 C32.5463596,21.1385121 32.6078427,12.7535775 32.5758202,12.7510242 C30.4392809,12.6105944 28.4641348,12.8659213 26.0662921,12.9386895 C25.9215506,17.4988275 26.0009663,25.1943795 26.2187191,31.003066 L26.2187191,31.0005127 Z M33.6876404,17.6213844 C33.7171011,23.279428 33.7837079,28.9374715 33.7990787,34.6006217 C33.806764,37.3236828 33.8118876,40.0454673 33.7990787,42.7710817 C33.7990787,43.5753614 33.7990787,43.9277125 33.7990787,44.1549534 C33.7990787,44.6962464 33.6453708,44.6873099 33.5095955,44.7141192 C33.2662247,44.7077361 32.9741798,44.7141192 32.7103146,44.6911398 C32.6065618,44.6822034 32.4541348,44.5915623 32.4835955,44.0809086 C32.4003371,39.9509964 32.4631011,35.8134243 32.4554157,31.6809588 C30.9977528,31.792026 28.0516854,31.9605418 26.232809,31.8839437 C26.2635506,33.6712318 26.2981348,35.3883051 26.2699551,37.17304 C26.245618,38.7381937 26.1252135,40.3339867 26.1264944,41.8965872 C26.1264944,42.194043 26.1264944,42.7991677 26.1124045,43.0902403 C26.181573,43.4732306 25.3361798,43.3838662 25.2913483,43.3838662 C25.2112908,43.3894886 25.1324399,43.3620271 25.0733192,43.3079329 C25.0141984,43.2538388 24.9800185,43.1778798 24.978809,43.0979001 C24.978809,43.0136423 24.978809,42.8898087 24.978809,42.6957603 C24.966,41.6987088 24.9711236,40.702934 24.978809,39.7058826 C24.9941798,37.633905 25.0607865,35.563204 25.0902472,33.4912264 C25.0902472,33.3954788 25.0902472,32.8529092 25.0902472,31.9094764 C24.8917079,31.9158596 24.7674607,31.9196895 24.7405618,31.9222427 C24.6291236,31.9337324 24.4920674,31.9056465 24.484382,31.872454 C24.462764,31.6249595 24.4584839,31.376264 24.471573,31.1281762 C24.471573,31.0566846 24.5676404,31.0081725 24.7213483,31.0132791 L25.0838427,31.0132791 C25.0697528,25.8237603 25.0313258,14.2306435 25.0338876,13.0561398 C24.0309438,13.076566 24.1193258,11.4833263 24.6022247,11.5011992 C25.3804696,11.3428708 26.1482999,11.1373767 26.9014382,10.8858614 C26.3365618,10.7275587 24.9800899,11.0569304 24.4421124,10.8564988 C24.1859326,10.7607512 24.1462247,10.5220206 24.0732135,10.293503 C23.7260899,9.21602361 24.1513483,9.53773547 24.7136629,9.4458178 C25.7627191,9.43305145 26.9244944,9.28879177 27.9415281,9.38964588 C28.2784045,8.69388015 28.8637753,7.6636362 28.7100674,6.9397845 C28.5089663,5.96954237 28.2937753,4.04437772 28.2233258,3.60266223 C28.1144494,2.84561804 28.588382,2.9222161 28.8496854,2.89796005 C29.0597528,2.88391707 29.8744045,2.84561804 30.4162247,2.77029661 C30.9580449,2.69497518 32.4733483,2.17283172 32.705191,2.81753208 C32.8473708,2.84817131 32.6911011,3.7762845 32.9024494,3.93075726 C32.9818652,4.11076271 32.9652135,4.87419007 32.7743596,4.97887409 C32.5437978,4.96100121 31.818809,5.12441041 31.4191685,4.99930024 C30.7364494,4.97632082 29.8974607,4.93419189 29.2506067,5.01334322 C29.2928764,5.82272942 29.538809,6.68062772 29.4798876,7.27936925 C29.7885843,7.5857615 30.8965618,8.97729298 31.0720449,9.49688317 C31.6032791,9.55018534 32.1381761,9.55702017 32.6706067,9.51730932 C32.8460899,8.51259806 33.883618,8.53685412 33.8567191,9.5722046 C34.3588315,9.64241949 34.6918652,9.68454843 34.8033034,9.95519492 C34.8532584,10.1007312 34.6483146,11.3811955 34.5471236,12.1037706 C34.4561798,12.7931531 34.1397978,12.6463402 33.7632135,12.7293214 C33.7068539,12.7293214 33.6748315,17.2409473 33.6773933,17.622661 L33.6876404,17.6213844 Z M30.4456854,17.4630817 C31.2552135,18.0809728 31.4704045,19.5299528 31.0144045,20.3227427 C30.9388315,20.4504062 30.5084494,21.0146786 30.2317753,21.1104262 C29.5119101,21.365753 28.7318427,21.2955381 28.2374157,20.9916992 C27.7801348,20.7108396 27.1115056,19.3652669 27.3407865,18.8214207 C27.7455506,17.8486253 29.1353258,16.4724134 30.4392809,17.4669116 L30.4456854,17.4630817 Z"/>
    <path fill="#009038" d="M2.68988764,27.1489068 C2.37991011,27.1310339 1.89444944,27.141247 1.56782022,27.1489068 C1.49352809,26.215687 1.596,24.6645763 1.50121348,23.7160369 C1.7628957,23.744127 2.02705976,23.7398389 2.28768539,23.7032706 C2.5028764,25.1203347 2.72447191,26.8706005 2.68988764,27.1501834 L2.68988764,27.1489068 Z M8.12474157,27.0876283 C7.89417978,27.0786919 7.4112809,27.1042246 7.10002247,27.0761386 C7.10002247,26.8042155 7.03853933,25.136931 7.11026966,23.6228426 C7.4110377,23.6432027 7.71292659,23.640642 8.01330337,23.6151828 C8.07734831,24.7884098 8.14907865,25.9131247 8.12217978,27.0876283 L8.12474157,27.0876283 Z M8.11833708,27.8012669 C8.15804494,32.9971689 8.27716854,38.1969007 8.31559551,43.3966326 C8.31559551,43.5051465 8.436,43.5396156 8.53719101,43.5396156 C8.56408989,43.5396156 9.12,43.6213202 9.21862921,43.5051465 C9.33262921,43.5051465 9.27626966,43.2498196 9.27755056,43.1553487 C9.29804494,38.0373214 9.24296629,32.8503559 9.20325843,27.7336053 L9.53501124,27.7157324 C9.75532584,27.7157324 9.81040449,27.2804001 9.78350562,27.1757161 C9.7680457,27.1189467 9.72294789,27.0749762 9.66566292,27.060819 C9.51964045,27.0212433 9.34159551,27.060819 9.2314382,27.0327331 C9.15714607,24.819049 9.2314382,22.9117573 8.84716854,21.2419195 C8.64991011,20.3546586 8.52182022,19.7099582 8.28357303,18.8290805 C8.05813483,17.9954383 7.61238202,17.7771338 7.4087191,18.0145878 C7.08465169,18.3975781 6.80797753,20.9738263 6.65939326,21.2776653 C6.44292135,21.721934 6.36222472,23.4390073 6.30586517,23.7236967 C6.23157303,23.4415605 5.64107865,21.5981005 5.19020225,20.7402022 C5.28626966,20.2040157 5.22094382,19.4635678 5.27217978,18.9209982 C5.33110112,18.3005539 5.38489888,17.5549994 4.80721348,17.3698874 C4.84948315,16.3894322 4.89431461,15.8621822 4.87125843,15.7166459 C4.93530337,15.6528142 5.27602247,15.7089861 5.4745618,15.6668571 C5.78453933,15.7830309 5.82424719,15.2149286 5.4745618,15.1255642 C5.3541573,15.0949249 4.96220225,15.0719455 4.91608989,15.0323699 C4.96860674,14.5076731 4.87382022,14.1285127 4.86229213,13.5948795 C4.84435955,12.7816634 4.4472809,12.811026 4.3345618,13.6165823 C4.26923596,14.0863838 4.40501124,14.4910769 4.41013483,14.9787512 C4.19238202,14.948112 3.64159551,15.0579025 3.46226966,15.1064146 C3.15101124,15.2340781 3.24451685,15.5481301 3.48148315,15.5685563 C3.71844944,15.5889824 4.14883146,15.5379171 4.35889888,15.5443002 C4.35889888,15.6438777 4.32559551,16.4085817 4.29485393,17.5792554 C4.09020787,17.8955128 3.94401468,18.2457272 3.86319101,18.6133293 C3.68898876,19.4456949 3.7671236,19.9512421 3.7645618,20.8410563 C3.49685393,21.9223656 3.13692135,24.0326423 3.04982022,24.4564849 C3.02035955,23.3802821 2.56051685,21.3708596 2.51824719,21.1831943 C2.21851685,19.8325151 2.08914607,19.3461174 1.98283146,19.0231289 C1.66388764,18.0554401 1.21429213,18.7831217 1.00550562,19.7520872 C0.762100774,20.8333862 0.629488029,21.9365241 0.609707865,23.0445272 C0.35352809,23.0675067 0.202382022,23.0304843 0.154988764,23.1377215 C0.0883820225,23.2883644 0.142179775,23.5832669 0.283078652,23.6062464 C0.394520551,23.6305812 0.508454622,23.6417224 0.622516854,23.6394389 C0.435505618,28.4663935 0.575123596,33.426118 0.55847191,38.2173269 C0.550786517,40.2484522 0.53541573,42.2783008 0.549505618,44.3094262 C0.549505618,44.5979455 0.536696629,44.5519867 0.760853933,44.5864558 C1.04319707,44.6280302 1.32862648,44.645116 1.61393258,44.6375212 C1.72921348,44.617095 1.8278427,44.6375212 1.81503371,44.341342 C1.83168539,43.8881368 1.78429213,42.8093808 1.78429213,42.3536223 C1.78429213,39.4811949 1.58831461,36.6598329 1.61137079,33.7848523 C1.62161798,32.5082179 1.61137079,31.2315835 1.61137079,29.9549492 C1.61137079,29.2693965 1.54604494,28.5774607 1.54476404,27.8038202 L2.68860674,27.8038202 C2.6181573,30.8383801 2.57588764,33.8920896 2.55155056,36.9279262 C2.53361798,39.1160775 2.66811236,42.2757476 2.67964045,44.460069 C2.67964045,44.6566707 2.7398427,44.6885866 2.93582022,44.7051828 C3.09337079,44.7179492 3.42640449,44.7217791 3.56730337,44.7294389 C3.61072266,44.7366281 3.65510554,44.7242614 3.68848881,44.695672 C3.72187209,44.6670826 3.74081981,44.6252131 3.74022472,44.5813493 C3.74791011,44.1166544 3.67746067,42.6919304 3.67746067,42.3740484 C3.67746067,40.189727 3.40719101,38.0054056 3.4212809,35.8223608 C3.42896629,34.8176495 3.4212809,33.8052785 3.4212809,32.8005672 C3.43024719,31.4869104 3.41359551,29.1200303 3.49173034,27.7999903 L6.21748315,27.7999903 C6.23669663,30.039207 6.20467416,32.2120387 6.21748315,34.4512554 C6.23413483,36.4453584 6.2712809,38.4394613 6.28537079,40.4348408 C6.28537079,41.1229467 6.35582022,41.5391295 6.37119101,42.3714952 C6.37119101,42.4736259 6.40577528,42.4710726 6.50952809,42.4710726 L7.12820225,42.5119249 C7.23195506,42.5119249 7.24476404,42.483839 7.24732584,42.3842615 C7.27038202,41.0884776 7.12564045,39.6267312 7.11923596,38.3832893 C7.11155056,37.4258136 7.11923596,36.460678 7.11923596,35.5044788 C7.10258427,33.4235648 7.10898876,31.3426507 7.10898876,29.2617367 C7.10898876,28.918322 7.10898876,28.2404292 7.09489888,27.8025436 L8.11833708,27.8012669 Z M7.17303371,23.0241011 C7.2068647,22.6392201 7.27110896,22.2575991 7.36516854,21.88279 C7.53168539,21.2329831 7.77889888,20.7606283 7.90570787,22.3551447 C7.91595506,22.3768475 7.93516854,22.6257912 7.95822472,23.0062282 C7.69637274,22.9963324 7.43415939,23.002301 7.17303371,23.0241011 Z M1.32573034,23.0713366 C1.33089303,22.4090116 1.37365803,21.7475086 1.45382022,21.09 C1.55757303,20.2678475 1.5934382,20.0801822 1.83808989,21.3172409 C2.01229213,22.210885 2.24029213,23.1109122 2.24029213,23.118572 C1.9405618,23.094316 1.54988764,23.0917627 1.32573034,23.0713366 Z M6.30330337,27.1106077 C5.4771236,27.1246507 4.13346067,27.1591199 3.55193258,27.1731628 C3.5314382,26.2182403 4.29613483,21.87896 4.57665169,21.9798142 C5.22478652,22.4713184 6.10348315,25.9833396 6.30330337,27.1106077 Z M4.45496629,31.6937252 C4.40629213,30.7400793 5.30035955,30.3494292 5.46175281,31.6030841 C5.47840449,33.7912355 5.46175281,34.1563529 5.46175281,37.3134697 C5.46175281,37.5522004 5.53220225,39.253954 5.51939326,39.4837482 C5.55910112,39.7020527 5.32853933,39.6599237 5.32469663,39.6612004 C5.09285393,39.6612004 4.82386517,39.6790732 4.59714607,39.6612004 C4.46008989,39.6522639 4.38451685,39.7186489 4.37170787,39.4339594 C4.29229213,37.7653983 4.23849438,33.8167682 4.45240449,31.6937252 L4.45496629,31.6937252 Z"/>
    <path fill="#DC200E" d="M14.6317079,12.5454861 L19.1071685,12.5454861 C19.0584944,11.8778063 18.6396404,10.9407567 18.1400899,10.492658 C17.4048539,9.83519128 16.4134382,9.73816707 15.8101348,10.1096677 C15.314427,10.4147833 15.0544045,10.7888372 14.8597079,11.3952385 C14.7918202,11.6084364 14.667573,12.2990956 14.6317079,12.5442094 L14.6317079,12.5454861 Z M18.0107191,16.5222022 C18.0107191,15.8736719 18.1657079,15.5774927 18.5089888,15.5749395 C18.8522697,15.5723862 19.0879551,16.0255914 19.0661798,16.662632 C19.0290337,17.7950067 18.9765169,18.5775835 18.9688315,19.337181 C19.266,19.337181 20.0908989,19.3282446 20.7518427,19.3205847 C20.7979551,17.0800914 20.8402247,15.4740854 20.8389438,15.2991864 C20.8325393,14.7451271 20.8261348,14.0225521 20.8504719,13.4033844 C20.6508984,13.4173795 20.4505848,13.4173795 20.2510112,13.4033844 C17.504764,13.6344552 15.2555056,13.6497748 12.8768764,13.2348686 C12.9383596,14.2153238 13.1804494,16.5719909 13.2175955,19.3844165 L14.7405843,19.3690969 C14.7828539,18.4856659 14.9634607,17.4541453 14.9442472,16.5068826 C14.9288764,15.7804776 15.2606292,15.3068462 15.5475506,15.2825902 C15.8728989,15.2545042 16.0278876,15.6770702 16.0406966,16.3038977 C16.0573483,17.1426465 15.9792135,18.4741762 15.9612809,19.3563305 C16.8169213,19.3473941 17.5828989,19.3422875 17.9594831,19.3397343 C17.9825393,18.4690696 18.0081573,17.4120163 18.0107191,16.515819 L18.0107191,16.5222022 Z M18.9419326,35.5849068 C18.986764,34.5393432 18.5448539,33.9329419 18.126,34.0389025 C17.8403596,34.1103941 17.4970787,34.4780648 17.3958876,35.416391 C17.3830787,37.406664 17.302382,41.1037972 17.3113483,42.9651301 C17.2498652,43.3685466 17.5675281,43.3174812 17.695618,43.3187579 C17.8967191,43.3187579 18.7203371,43.3647167 18.848427,43.3647167 C18.9765169,43.3647167 19.0136629,43.3557803 19.0085393,43.0902403 C19.0085393,42.9625769 19.0021348,42.70725 19.0085393,42.3242597 C19.0187865,41.4918941 18.9918876,36.6304703 18.9521798,35.5849068 L18.9419326,35.5849068 Z M15.9177303,35.4214976 C15.9510337,34.4269994 15.6039101,33.9789007 15.2593483,34.0018801 C14.9929213,34.0184764 14.5241124,34.2367809 14.4408539,35.2529818 C14.4203596,39.3088493 14.2986742,35.2095763 14.2973933,41.0667748 C14.2973933,41.5097669 14.3089213,42.5846931 14.3242921,43.0200254 C14.2948315,43.2753523 14.4165169,43.3098214 14.5010562,43.3187579 C14.5855955,43.3276943 15.2964944,43.3302476 15.5872584,43.3430139 C15.7986067,43.353227 15.8357528,43.300885 15.8434382,43.0698142 C15.8434382,42.9498105 15.8434382,42.8221471 15.8434382,42.4110708 C15.8498427,40.6556985 15.947191,37.1602736 15.9177303,35.4214976 Z M17.7225169,24.2700962 C17.7430112,22.7202621 18.9252809,22.0806683 19.0392809,24.1041338 C19.0482472,26.4480345 18.9342472,28.4829897 18.9944494,31.1256229 C19.4081798,31.1154098 20.0780899,31.1026435 20.4713258,31.0873238 C20.5187191,28.9578977 20.6301573,26.3637766 20.646809,23.8922125 C20.6544944,22.5798323 20.7249438,21.3172409 20.7403146,20.0061374 C18.2707416,20.1069915 15.7012584,20.0329467 13.2265618,20.140184 C13.2726742,23.8092312 13.1138427,27.483385 13.0984719,31.1511556 L14.5279551,31.1613686 C14.5279551,30.5358178 14.503618,29.9077137 14.5048989,29.2808862 C14.5048989,23.7351864 14.4920899,27.4846616 14.5138652,23.6432688 C14.6099326,22.6117482 14.9186292,22.5517464 15.213236,22.5925987 C15.5462697,22.6398341 15.7934831,22.9130339 15.7601798,23.8028481 C15.7909213,25.4497064 15.8319101,28.7498063 15.8255056,30.4119843 C15.8255056,30.8754025 15.8357528,31.0503015 15.8255056,31.1626453 C16.3071236,31.1626453 17.0602921,31.1626453 17.5406292,31.1524322 C17.5406292,31.0349818 17.5406292,30.8383801 17.5406292,30.4311338 C17.530382,29.6077046 17.6892135,25.308 17.7289213,24.2764794 L17.7225169,24.2700962 Z M13.2547416,11.8522736 C13.3982022,11.7118438 13.5647191,11.1935303 13.6005843,11.1143789 C14.1628989,9.61433354 15.3618202,9.16878814 16.0471011,8.83303329 C16.0727191,8.09258535 16.099618,7.09042736 16.1290787,6.60019976 C16.1726292,5.89549758 15.807573,5.74740799 16.0701573,5.24058414 C16.1841573,5.01717312 16.6644944,4.71333414 16.7106067,4.71333414 C16.745191,3.99586562 16.7618427,3.03966646 16.6747416,2.61965375 C16.7093258,2.33751755 16.2123371,2.40645581 15.8869888,2.3911362 C15.4194607,2.36943341 15.4361124,1.89835533 15.8549663,1.84473668 C16.0988107,1.835263 16.3429975,1.83952523 16.5863596,1.85750303 L16.5863596,1.84984322 C16.5870163,1.83335283 16.594319,1.81782357 16.6066148,1.80677013 C16.6189107,1.79571668 16.6351601,1.79007359 16.6516854,1.79111804 L16.6811461,1.79111804 C16.7797753,1.44515012 16.706764,1.291954 16.6606517,0.699595642 C16.5914831,-0.194048426 17.1730112,-0.220857748 17.2831685,0.584698547 C17.2255281,0.873217918 17.3382472,1.87282264 17.3779551,1.89197215 C17.6892135,1.90984504 18.1157528,1.92133475 18.3014831,2.03750847 C18.5486966,2.19325787 18.5102697,2.5136931 18.2387191,2.54816223 C18.1426517,2.55965194 17.9146517,2.50603329 17.6520674,2.52645944 C17.3215955,2.49326695 17.3728315,2.50092676 17.3689888,2.61582385 C17.3510562,3.03073002 17.3075056,4.00480206 17.2780449,4.71716404 C17.9543596,4.90099939 18.442382,5.84826211 17.9377079,6.44062046 C17.6725618,6.75084262 17.7430112,6.60275303 17.7430112,7.09042736 C17.7430112,7.31511501 17.7097079,8.13216102 17.7109888,8.81005387 C18.4872135,9.23900303 19.7079101,9.5760345 20.7159775,11.4603469 C20.760809,10.5667028 20.6737079,9.57475787 20.7582472,8.58025969 C20.8504719,7.48618402 21.5152584,7.71980811 21.6446292,8.54962046 C21.836764,9.7764661 21.900809,11.110549 21.9494831,12.3488844 C22.103191,12.3667573 22.3337528,12.3488844 22.5156404,12.4331423 C22.6437303,12.4956973 22.6219551,12.8161326 22.546382,12.9169867 C22.3846709,13.0934566 22.1867842,13.2332141 21.9661348,13.3267863 C21.9955955,15.1779062 21.9776629,17.4681883 21.9840674,19.2937754 L22.406764,19.2937754 C22.6309213,19.2937754 22.6257978,19.4929304 22.6001798,19.6422966 C22.5966993,19.7672063 22.4937101,19.86645 22.3683371,19.8657076 C22.23,19.8823039 22.1339326,19.8976235 21.9943146,19.90273 C22.0160899,25.664181 22.0314607,35.9551308 22.0314607,36.3879098 C22.0391461,36.8857972 22.0314607,37.3875145 22.0314607,37.8866786 C22.0314607,38.1420054 22.0468315,40.8535769 22.0429888,41.1127337 C22.0353034,41.6106211 22.0199326,42.4493699 22.0045618,42.9459806 C21.9981573,43.1655617 22.1147191,43.4566344 21.836764,43.4566344 L20.6442472,43.4566344 C20.4918202,43.4566344 20.4713258,43.4655708 20.4649213,43.2945018 C20.3291461,40.0480206 20.457236,38.1522185 20.4239326,35.695974 C20.4239326,35.5236283 20.4047191,33.953368 20.4546742,31.753727 C18.0453034,31.8264952 15.4963146,31.8124522 13.0895056,31.8073456 C13.0613258,36.0330054 12.894809,40.1488747 12.705236,44.3387887 C12.729573,44.4958148 12.6578427,44.5481568 12.5335955,44.5685829 C12.3075912,44.5983391 12.080085,44.6153879 11.8521573,44.6196483 C11.7906742,44.6196483 11.615191,44.6196483 11.6241573,44.3464485 C11.7355955,40.9199619 11.8521573,37.4270902 11.8483146,33.9878372 C11.8419101,33.2218565 11.907236,32.5835393 11.907236,31.8098989 C11.7701798,31.8098989 11.5306517,31.8098989 11.438427,31.8098989 C11.3462022,31.8098989 11.1374157,31.8596877 11.1374157,31.6541495 L11.1053933,31.2813723 C11.0861798,31.0260454 11.6843596,31.0988136 11.9021124,31.1179631 C11.9981798,27.5114709 12.0404494,23.8526368 11.9277303,20.1529504 L11.6382472,20.1529504 C11.5588315,20.1529504 11.3077753,20.1657167 11.247573,19.7163414 C11.247573,19.6537863 11.2373258,19.4342052 11.3602921,19.4380351 C11.5255281,19.4316519 11.7445618,19.4086725 11.9238876,19.4061192 C11.9085169,16.6983777 11.8931461,14.4272452 11.8803371,13.4199806 C11.780427,11.7680157 11.6305618,10.4620188 11.9930562,9.2453862 C12.1928764,8.57642978 12.6808989,9.09346671 12.819236,9.69348487 C12.9281124,10.1696695 13.1176854,11.1424649 13.2547416,11.8522736 Z"/>
    <path fill="#007DC2" d="M41.1962697,11.033951 C41.4357978,14.4642676 42.3337079,17.1834988 43.7580674,19.2261138 C43.5573384,19.2503659 43.3539812,19.2417412 43.1560449,19.2005811 C43.0125843,19.1737718 43.0202697,19.1367494 42.9421348,19.0205757 C42.356764,17.3877603 39.8679775,17.0673251 38.9303596,19.1303662 C38.5595169,19.1644695 38.1868283,19.1742781 37.8146966,19.1597288 C38.8125169,17.8728814 40.3764944,13.9778699 40.6429213,11.2548087 C40.6544494,10.8003269 41.1911461,10.6879831 41.1937079,11.033951 L41.1962697,11.033951 Z M45.7088764,19.298882 C45.3809663,19.1954746 45.0837978,18.823974 44.9044719,18.5048154 C44.9390562,17.8243692 44.9966966,16.8898729 44.9966966,16.5809274 C45.0722697,15.6260048 44.3062921,15.6719637 44.156427,16.358793 L43.991191,17.1183904 C42.7461573,14.6646992 42.4694831,12.6693196 42.5642697,9.66922881 C42.7599062,9.33621554 42.8459139,8.95046951 42.8102022,8.56621671 C42.6897978,7.48873729 41.8367191,7.57044189 41.3755955,7.48107748 C41.3755955,7.35341404 41.4883146,4.93674516 41.5741348,4.80014528 C41.5805393,4.71078087 42.117236,4.68141828 42.3260225,4.65205569 C42.8819326,4.57290436 42.7922697,4.26906538 42.2376404,4.08778329 C42.1095506,4.04565436 41.7918876,4.08778329 41.6048764,4.13884867 C41.5382697,4.07501695 41.5626067,3.84011622 41.5369888,3.3269092 C41.5011236,2.62603692 41.0361573,2.19581114 40.8850112,3.25541768 C40.7979101,3.86181901 40.7953483,3.96139649 40.900382,4.13374213 C40.4033933,4.19119068 40.3124494,4.15672155 39.9806966,4.17970097 C39.4094157,4.21927663 39.6489438,4.69035472 40.1523371,4.76184625 C40.4085169,4.79759201 40.7646067,4.8231247 40.8760449,4.78099576 C40.964427,4.89333959 40.7582022,7.29341223 40.8145618,7.57810169 C40.1203146,7.82449213 39.9742921,8.94154722 39.9525169,9.73050726 C39.8641348,12.8889007 39.0213034,14.7004449 37.4317079,17.5307433 L37.3305169,16.3932621 C37.3305169,15.4383396 36.542764,15.4932349 36.5453258,16.1941071 L36.5568539,18.7537591 C36.3764867,19.0193167 36.1405067,19.2427514 35.8651685,19.4086725 C35.7550112,19.4725042 35.7242697,19.4993136 35.7165843,19.5950611 C35.6948311,19.7056386 35.7188532,19.8202846 35.783191,19.9129431 C35.8052049,19.946453 35.841722,19.9677231 35.8818202,19.9703916 C36.0099101,19.9959243 36.3608764,19.9703916 36.5376404,19.9703916 C36.5376404,21.023615 36.5722247,22.5402567 36.5645393,23.5896501 C36.5530112,25.2428916 36.5402022,26.8961332 36.5171461,28.5493747 C36.4889663,30.6379485 36.4710337,32.7086495 36.4607865,34.7933935 C36.4466966,37.5790097 36.4351685,40.3646259 36.4607865,43.1502421 C36.4607865,43.604724 36.4492584,43.9940975 36.4505393,44.1536768 C36.4505393,44.5060278 36.6004045,44.5685829 36.873236,44.6107119 C37.1310558,44.6523544 37.3929951,44.6626427 37.6533034,44.6413511 C37.7954831,44.6158184 37.9555955,44.6209249 37.9389438,44.2583608 C37.9607191,43.7043015 37.9030787,39.5884322 37.9030787,39.0241598 C37.9030787,38.1075363 37.8633708,37.1960194 37.8172584,36.2845024 C39.0981573,36.3049286 41.8149438,36.3176949 43.6389438,36.3291846 C43.6389438,38.541592 43.6594382,40.7591059 43.6645618,42.9791731 C43.6645618,43.3876961 43.7926517,43.4451447 43.8797528,43.4706774 C44.0513933,43.4540811 44.485618,43.5025932 44.6905618,43.5051465 C44.7738202,43.5051465 44.991573,43.5855745 45.004382,43.1451356 C45.004382,43.0008759 45.004382,42.7710817 45.004382,42.2514915 C45.0107865,41.3821035 44.9108764,37.895615 44.8852584,36.3368444 C45.0274364,36.3504226 45.1702719,36.3559635 45.3130787,36.3534407 C45.4783146,36.3789734 45.6153708,36.3457809 45.6179326,36.2947155 C45.6466643,36.1196087 45.659951,35.9423301 45.6576404,35.7649122 C45.6653258,35.6372488 45.5295506,35.6066096 45.3822472,35.6117161 C45.1516854,35.6117161 45.0914831,35.6117161 44.8762921,35.6117161 C44.8762921,33.6725085 44.7827865,31.7320242 44.7482022,29.7928166 C44.726427,28.5085224 44.7597303,27.2229516 44.7482022,25.9386574 C44.7302697,24.1513692 44.8762921,21.7678929 44.8762921,19.9767748 C45.1058496,19.9397041 45.333306,19.8906996 45.5577303,19.8299619 C45.7844494,19.76996 45.942,19.3576071 45.7024719,19.2937754 L45.7088764,19.298882 Z M43.7234831,20.1350775 C43.323704,20.1999458 42.9193567,20.2328177 42.5143146,20.2333783 C42.1864045,20.2244419 41.9737753,20.1567803 41.8072584,19.8286852 C40.7248989,17.7133021 40.0255281,19.009086 39.4145393,19.7814498 C39.2629262,19.9303789 39.0524195,20.0039046 38.8406966,19.9818814 C38.4064719,19.9652851 37.8428764,19.9818814 37.5354607,19.9818814 C37.5918202,21.8623638 37.5905393,24.7475575 37.5764494,26.6842119 C37.5649213,28.1268087 37.6686742,29.5821719 37.6571461,31.0247688 C37.645618,32.5643898 37.7032584,34.0503923 37.785236,35.6653347 C39.2364944,35.6398021 42.1646292,35.6117161 43.6389438,35.6219292 C43.6389438,33.6814449 43.6799326,31.739684 43.6632809,29.7979231 C43.6517528,28.5315018 43.700427,27.2535908 43.6901798,25.9858929 C43.6773708,24.3900999 43.674809,21.7423602 43.7209213,20.1350775 L43.7234831,20.1350775 Z M41.2526292,27.28423 C41.1975506,26.3139879 42.2171461,25.9169546 42.3990337,27.1923123 C42.4182472,29.4187627 42.4054382,26.6688923 42.408,29.8847343 C42.408,30.1285714 42.3964719,30.6941205 42.382382,30.9328511 C42.4272135,31.1549855 42.167191,31.1256229 42.1620674,31.1256229 C41.905501,31.1624724 41.6457565,31.1723141 41.3871236,31.1549855 C41.242382,31.027322 41.2910562,31.027322 41.2833708,30.5396477 C41.2756854,30.0519734 41.2449438,30.2153826 41.2449438,29.749411 C41.2449438,29.5068505 41.2564719,29.4085496 41.2590337,29.1647125 C41.2487865,28.0234013 41.2590337,27.8331828 41.2590337,27.2880599 L41.2526292,27.28423 Z M40.2125393,27.3761477 C40.1382472,28.2123432 40.1638652,29.9715454 40.1689888,30.8294437 C40.1689888,31.0388117 40.0063146,31.0311519 39.9281798,31.0324286 C39.7146881,31.0420917 39.5008025,31.0386809 39.2877303,31.0222155 C39.1852584,31.0285987 38.9726292,31.0298753 38.9918427,30.817954 C38.8755342,29.6371004 38.8996112,28.4466863 39.063573,27.2714637 C39.2851685,25.8314201 40.2791461,26.2795188 40.2125393,27.378701 L40.2125393,27.3761477 Z"/>
  </g>
</svg>
