<svg height="21" viewBox="0 0 20 21" width="20" xmlns="http://www.w3.org/2000/svg" xmlns:xlink="http://www.w3.org/1999/xlink"><linearGradient id="a" x1="91.48951%" x2="-38.317316%" y1="4.960407%" y2="71.909245%"><stop offset="0" stop-color="#00a0ff"/><stop offset=".0066" stop-color="#00a1ff"/><stop offset=".2601" stop-color="#00beff"/><stop offset=".5122" stop-color="#00d2ff"/><stop offset=".7604" stop-color="#00dfff"/><stop offset="1" stop-color="#00e3ff"/></linearGradient><linearGradient id="b" x1="107.585647%" x2="-130.492257%" y1="50.016365%" y2="50.016365%"><stop offset="0" stop-color="#ffe000"/><stop offset=".4087" stop-color="#ffbd00"/><stop offset=".7754" stop-color="#ffa500"/><stop offset="1" stop-color="#ff9c00"/></linearGradient><linearGradient id="c" x1="86.237735%" x2="-50.131376%" y1="117.851014%" y2="294.785269%"><stop offset="0" stop-color="#ff3a44"/><stop offset="1" stop-color="#c31162"/></linearGradient><linearGradient id="d" x1="-18.801288%" x2="42.093626%" y1="-154.171052%" y2="-75.136555%"><stop offset="0" stop-color="#32a071"/><stop offset=".0685" stop-color="#2da771"/><stop offset=".4762" stop-color="#15cf74"/><stop offset=".8009" stop-color="#06e775"/><stop offset="1" stop-color="#00f076"/></linearGradient><g fill="none" fill-rule="evenodd"><path d="m.55122482 19.6179226c-.23556219-.2393674-.37188754-.612041-.37188754-1.0946679v-17.21499089c0-.48262692.13632535-.85530053.37188754-1.09466792l.05813875-.05254406 9.93771723 9.64280804v.22769093l-9.93771723 9.642808z" fill="url(#a)" transform="translate(.635884 .863782)"/><path d="m3.62966252.56241605-3.30889698 3.21589108v.22769092l3.31290655 3.21589108.07417703-.04184064 3.92336346-2.16695595c1.1196722-.61496011 1.1196722-1.62691979 0-2.24577205l-3.92336346-2.1630638z" fill="url(#b)" transform="translate(10.8622 6.889334)"/><path d="m13.7317721 7.41552372-3.3870836 3.28789588-9.99585598-9.70410942c.37188754-.37948488.97833489-.42521767 1.66798079-.0457328z" fill="url(#c)" transform="translate(.838277 .078067)"/><path d="m13.7317721 3.2878959-11.71495879 6.46194634c-.6896459.37559276-1.29609325.32985996-1.66798079-.04962495l9.99585598-9.70021729z" fill="url(#d)" transform="translate(.838277 10.781487)"/></g></svg>