<svg height="23" viewBox="0 0 19 23" width="19" xmlns="http://www.w3.org/2000/svg"><g fill="#fff" fill-rule="evenodd"><path d="m15.76888 12.30068c.021857-1.6964709.9112429-3.26349389 2.35656-4.15206-.9159274-1.30810723-2.395048-2.10774165-3.99116-2.15768-1.67924-.17626-3.30719 1.00483-4.1629 1.00483-.87227 0-2.18977-.98733-3.6085-.95814-1.86667874.06030842-3.56474283 1.09589548-4.47292 2.72787-1.934 3.34842-.49141 8.26947 1.3612 10.97608.9269 1.32535 2.01018 2.8058 3.42763 2.7533 1.38706-.05753 1.9051-.88448 3.5794-.88448 1.65876 0 2.14479.88448 3.591.8511 1.48838-.02416 2.42613-1.33124 3.32051-2.66914.6659761-.9443603 1.1784437-1.9880841 1.51842-3.09251-1.7677434-.7476687-2.9171768-2.4798157-2.91924-4.39917z"/><path d="m13.03725 4.21089c.8115266-.97420809 1.211335-2.22638755 1.11452-3.49062-1.2398322.13022049-2.3850898.72277968-3.20758 1.65961-.8121713.92430903-1.22361537 2.13355268-1.14371 3.36139 1.2564568.01293677 2.4494361-.55111678 3.23677-1.53038z"/></g></svg>